<?xml version="1.0" encoding="UTF-8"?>
<svg width="34px" height="35px" viewBox="0 0 34 35" version="1.1" xmlns="http://www.w3.org/2000/svg" xmlns:xlink="http://www.w3.org/1999/xlink">
    <title>白模</title>
    <g id="长宁区城市运行管理中心" stroke="none" stroke-width="1" fill="none" fill-rule="evenodd">
        <g id="长宁区城市运行管理中心-20.12.18" transform="translate(-1771.000000, -983.000000)" fill="#FFFFFF" fill-rule="nonzero" stroke="#FFFFFF" stroke-width="0.6">
            <g id="编组-63" transform="translate(1668.000000, 964.000000)">
                <g id="编组-84" transform="translate(88.000000, 5.000000)">
                    <g id="白模" transform="translate(16.000000, 14.000000)">
                        <path d="M0.788573717,26.6653029 L15.7687005,34.3477118 C15.9183007,34.3477118 15.9183007,34.5010836 16.0679009,34.5010836 C16.2187581,34.5010836 16.3683583,34.5010836 16.3683583,34.3477118 L31.3484851,26.6665748 C31.6489426,26.5119459 31.7985438,26.2039452 31.7985438,26.0505741 L31.7985438,7.61328073 C31.7985438,7.45865184 31.7985438,7.30528038 31.6476865,7.15190926 L31.4980863,6.9985378 C31.4980863,6.9985378 31.4980863,6.8439089 31.3484862,6.8439089 L31.198886,6.8439089 L16.2174873,0.698992376 L15.6190866,0.698992376 L0.637687916,6.8439089 L0.486830647,6.8439089 L0.338487568,6.9985378 L0.187630299,7.15190926 C0.338487568,7.30528072 0.338487568,7.45865252 0.338487568,7.61328073 L0.338487568,26.0505741 C0.338487568,26.3585744 0.488087742,26.6665748 0.78728809,26.6665748 L0.788573717,26.6653029 Z M1.83577494,8.68815386 L15.3186625,14.219579 L15.3186625,32.5047284 L1.83577494,25.5904298 L1.83577494,8.68688198 L1.83577494,8.68815386 Z M16.8171736,32.5047628 L16.8171736,14.2183415 L30.3000612,8.68691636 L30.3000612,25.5892267 L16.8171736,32.5035253 L16.8171736,32.5047628 Z M16.0679146,2.23523698 L29.1020017,7.61331511 L16.0679146,12.9901214 L3.03509946,7.61331511 L16.0679146,2.23523698 Z" id="形状"></path>
                    </g>
                </g>
            </g>
        </g>
    </g>
</svg>