<?xml version="1.0" encoding="UTF-8"?>
<svg width="294px" height="294px" viewBox="0 0 294 294" version="1.1" xmlns="http://www.w3.org/2000/svg" xmlns:xlink="http://www.w3.org/1999/xlink">
    <title>编组 74</title>
    <defs>
        <linearGradient x1="66.6666667%" y1="33.8408805%" x2="62.6156118%" y2="37.8607182%" id="linearGradient-1">
            <stop stop-color="#0FD7C5" offset="0%"></stop>
            <stop stop-color="#0FD7C5" stop-opacity="0" offset="100%"></stop>
        </linearGradient>
        <linearGradient x1="92.8550609%" y1="75.4228098%" x2="71.6405519%" y2="63.1739425%" id="linearGradient-2">
            <stop stop-color="#0FD7C5" offset="0%"></stop>
            <stop stop-color="#0FD7C5" stop-opacity="0" offset="100%"></stop>
        </linearGradient>
    </defs>
    <g id="页面-1" stroke="none" stroke-width="1" fill="none" fill-rule="evenodd">
        <g id="长宁区城市运行管理中心-20.12.9" transform="translate(-2851.000000, -768.000000)">
            <g id="编组-48" transform="translate(2851.000000, 768.000000)">
                <g id="编组-74" transform="translate(0.000000, 0.000000)">
                    <g id="编组-57" transform="translate(74.929907, 51.259135)" stroke="url(#linearGradient-1)">
                        <polyline id="路径" transform="translate(108.225953, 65.250000) rotate(-30.000000) translate(-108.225953, -65.250000) " points="75.75 9 140.701905 46.5 140.701905 121.5"></polyline>
                        <polyline id="路径" transform="translate(125.475953, 95.127876) rotate(-330.000000) translate(-125.475953, -95.127876) " points="93 38.8778764 157.951905 76.3778764 157.951905 151.377876"></polyline>
                        <polyline id="路径" transform="translate(108.225953, 125.005753) rotate(-270.000000) translate(-108.225953, -125.005753) " points="75.75 68.7557529 140.701905 106.255753 140.701905 181.255753"></polyline>
                        <polyline id="路径" transform="translate(73.725953, 125.005753) rotate(-210.000000) translate(-73.725953, -125.005753) " points="41.25 68.7557529 106.201905 106.255753 106.201905 181.255753"></polyline>
                        <polyline id="路径" transform="translate(56.475953, 95.127876) rotate(-150.000000) translate(-56.475953, -95.127876) " points="24 38.8778764 88.9519053 76.3778764 88.9519053 151.377876"></polyline>
                        <polyline id="路径" transform="translate(73.725953, 65.250000) rotate(-90.000000) translate(-73.725953, -65.250000) " points="41.25 9 106.201905 46.5 106.201905 121.5"></polyline>
                    </g>
                    <g id="编组-73">
                        <polygon id="多边形" stroke="url(#linearGradient-2)" stroke-width="4" transform="translate(147.000000, 147.000000) rotate(-30.000000) translate(-147.000000, -147.000000) " points="147 40 239.664718 93.5 239.664718 200.5 147 254 54.3352818 200.5 54.3352818 93.5"></polygon>
                        <polygon id="多边形" fill-opacity="0.149120411" fill="#0FD7C5" transform="translate(166.000000, 147.000000) rotate(-30.000000) translate(-166.000000, -147.000000) " points="166 86 218.82755 116.5 218.82755 177.5 166 208 113.17245 177.5 113.17245 116.5"></polygon>
                        <polygon id="多边形" fill-opacity="0.149120411" fill="#0FD7C5" transform="translate(166.000000, 147.000000) rotate(-30.000000) translate(-166.000000, -147.000000) " points="166 103 204.105118 125 204.105118 169 166 191 127.894882 169 127.894882 125"></polygon>
                    </g>
                </g>
            </g>
        </g>
    </g>
</svg>