<?xml version="1.0" encoding="UTF-8"?>
<svg width="45px" height="45px" viewBox="0 0 45 45" version="1.1" xmlns="http://www.w3.org/2000/svg" xmlns:xlink="http://www.w3.org/1999/xlink">
    <title>yiliao</title>
    <defs>
        <filter x="-24.2%" y="-24.2%" width="148.5%" height="148.5%" filterUnits="objectBoundingBox" id="filter-1">
            <feOffset dx="0" dy="0" in="SourceAlpha" result="shadowOffsetOuter1"></feOffset>
            <feGaussianBlur stdDeviation="2" in="shadowOffsetOuter1" result="shadowBlurOuter1"></feGaussianBlur>
            <feColorMatrix values="0 0 0 0 0   0 0 0 0 0.0579489145   0 0 0 0 0.154806386  0 0 0 1 0" type="matrix" in="shadowBlurOuter1" result="shadowMatrixOuter1"></feColorMatrix>
            <feMerge>
                <feMergeNode in="shadowMatrixOuter1"></feMergeNode>
                <feMergeNode in="SourceGraphic"></feMergeNode>
            </feMerge>
        </filter>
    </defs>
    <g id="页面-1" stroke="none" stroke-width="1" fill="none" fill-rule="evenodd">
        <g id="长宁区卫生监督应急指挥系统" transform="translate(-1431.000000, -86.000000)" fill="#448AFF" fill-rule="nonzero">
            <g id="编组备份" transform="translate(1420.000000, 82.000000)">
                <g id="yiliao" filter="url(#filter-1)" transform="translate(17.000000, 10.000000)">
                    <path d="M18.3582396,0 C20.3122269,0 21.896541,1.58431409 21.896541,3.53830148 L21.896541,3.53830148 L21.896541,11.4334667 C21.9559528,11.4268654 22.0219659,11.4202641 22.0945803,11.4202641 L22.0945803,11.4202641 L30.5046476,11.4202641 C31.8843211,11.4202641 33.0065436,12.5490879 32.9999713,13.9287614 L32.9999713,13.9287614 L32.9999713,32.9999423 L-1.47792889e-13,32.9999423 L-1.47792889e-13,3.53830148 C-1.47792889e-13,1.58431409 1.5909154,0 3.53830148,0 L3.53830148,0 Z M30.1745822,14.0607876 L22.0945803,14.0607876 C21.9955607,14.0607876 21.896541,14.1466046 21.896541,14.2588268 L21.896541,14.2588268 L21.896541,18.1271938 L26.9465422,18.1271938 C27.6066731,18.1271938 28.0951699,18.8203312 28.0951699,19.4408542 C28.0951699,20.0613772 27.6066731,20.7545146 26.9465422,20.7545146 L26.9465422,20.7545146 L21.896541,20.7545146 L21.896541,23.6194826 L26.9465422,23.6194826 C27.6066731,23.6194826 28.0951699,24.31262 28.0951699,24.933143 C28.0951699,25.5470648 27.6066731,26.2468035 26.9465422,26.2534048 L26.9465422,26.2534048 L21.896541,26.2534048 L21.896541,30.3924254 L30.3726214,30.3924254 L30.3726214,14.2588268 C30.3726214,14.1598072 30.2868044,14.0607876 30.1745822,14.0607876 L30.1745822,14.0607876 Z M18.0281741,2.62071956 L3.86836691,2.62071956 C3.1752295,2.62071956 2.62071956,3.18843211 2.62071956,3.86836691 L2.62071956,3.86836691 L2.62071956,30.3726214 L5.54509933,30.3726214 L5.54509933,23.949548 C5.54509933,23.0055609 6.31085114,22.2266065 7.2680409,22.2266065 L7.2680409,22.2266065 L14.9585656,22.2266065 C15.909154,22.2266065 16.6815071,22.9989596 16.6881085,23.9561494 L16.6881085,23.9561494 L16.6881085,30.385824 L19.2758215,30.385824 L19.2758215,3.86836691 C19.2758215,3.1752295 18.7081089,2.62071956 18.0281741,2.62071956 L18.0281741,2.62071956 Z M14.0607876,25.0057574 L8.16581889,25.0057574 L8.16581889,30.3792227 L14.0607876,30.3792227 L14.0607876,25.0057574 Z M11.0175843,6.79934798 C11.7305256,6.79934798 12.3180421,7.38026315 12.3180421,8.0998058 L12.3180421,8.0998058 L12.3180421,11.1166039 L15.6318991,11.1166039 L15.6318991,11.1562117 C15.8695462,11.2156235 16.0873894,11.3344471 16.2656247,11.4994798 C16.5032718,11.7371269 16.6418993,12.080395 16.6418993,12.4170617 C16.6418993,12.7537285 16.5098731,13.0903952 16.2656247,13.3346436 C16.0213763,13.578892 15.6847095,13.7175195 15.3414415,13.7109182 L15.3414415,13.7109182 L12.3246434,13.7109182 L12.3246434,16.7277163 C12.3246434,17.4406576 11.7371269,18.0281741 11.0241856,18.0281741 C10.3112442,18.0281741 9.72372775,17.447259 9.72372775,16.7277163 L9.72372775,16.7277163 L9.72372775,13.7109182 L6.70692966,13.7109182 C6.35045899,13.7109182 6.02699486,13.578892 5.78274644,13.3280423 C5.54509933,13.0903952 5.40647184,12.7471271 5.40647184,12.4104604 C5.40647184,12.0737937 5.53849802,11.7371269 5.78274644,11.4928785 C6.02039355,11.2552314 6.35045899,11.1166039 6.70032835,11.1166039 L6.70032835,11.1166039 L9.71712644,11.1166039 L9.71712644,8.0998058 C9.71712644,7.38686446 10.2980416,6.79934798 11.0175843,6.79934798 Z" id="形状结合"></path>
                </g>
            </g>
        </g>
    </g>
</svg>