<?xml version="1.0" encoding="UTF-8"?>
<svg width="34px" height="34px" viewBox="0 0 34 34" version="1.1" xmlns="http://www.w3.org/2000/svg" xmlns:xlink="http://www.w3.org/1999/xlink">
    <title>地图</title>
    <g id="长宁区城市运行管理中心" stroke="none" stroke-width="1" fill="none" fill-rule="evenodd">
        <g id="长宁区城市运行管理中心-20.12.18" transform="translate(-2123.000000, -984.000000)" fill="#FFFFFF" fill-rule="nonzero" stroke="#FFFFFF">
            <g id="编组-63" transform="translate(1668.000000, 964.000000)">
                <g id="编组-87" transform="translate(440.000000, 5.000000)">
                    <g id="地图" transform="translate(16.000000, 16.000000)">
                        <path d="M16.0000228,31.5603811 C7.42081486,31.5603811 0.439664371,24.5792688 0.439664371,16.0000228 C0.439664371,7.42081486 7.42077666,0.439664371 16.0000228,0.439664371 C24.5792307,0.439664371 31.5603811,7.42077666 31.5603811,16.0000228 C31.5603811,24.5792307 24.5792688,31.5603811 16.0000228,31.5603811 Z M16.0000228,1.28078341 C7.88338831,1.28078341 1.28078341,7.88342651 1.28078341,16.0000228 C1.28078341,24.1166572 7.88342651,30.7192621 16.0000228,30.7192621 C24.1166572,30.7192621 30.7192621,24.116619 30.7192621,16.0000228 C30.7192621,7.88338831 24.116619,1.28078341 16.0000228,1.28078341 Z" id="形状"></path>
                        <path d="M8.30394783,17.471965 C8.13572784,17.471965 8.00956266,17.4299068 7.84134382,17.303742 C3.80407176,14.4019462 3.5937729,11.3319191 3.5937729,10.743151 C3.5937729,9.77588704 6.57967672,6.11711091 7.37872453,6.11711091 C7.75721969,6.11711091 8.09366043,6.45355088 8.72448443,7.08437488 C8.9347596,7.29465006 9.31325629,7.67314675 9.48147628,7.79931078 C9.56558628,7.71520079 9.81791626,7.42081562 10.0281922,7.21053892 C10.2384674,6.95820894 10.5328522,6.57971492 10.8692921,6.24327494 C11.1216221,5.99094496 11.3739521,5.86477978 11.6683361,5.86477978 C11.9206661,5.86477978 12.088888,5.99094496 12.1729961,6.11710976 C12.3412161,5.86477978 12.593548,5.78066979 12.7617679,5.7386146 C13.224372,5.65450461 13.6869798,5.94888977 13.8972519,6.15916648 C13.9813619,6.24327647 14.0234171,6.28533166 14.0654719,6.41149646 C14.4860238,7.21054044 14.2757471,7.84136826 14.0654719,8.21986037 C13.6028679,8.93479627 12.6356001,9.39740028 11.9627201,9.60767622 C12.2150501,9.8600062 12.5935441,10.1543921 12.8038201,10.1964481 C13.0982052,9.9441181 13.518756,9.81795292 13.939304,9.69178812 C14.275744,9.60767813 14.612184,9.52356814 14.948624,9.35534815 C15.3271191,9.14507297 15.7476679,9.18712816 16.1261639,9.43945814 C16.7990438,9.86001002 17.2616478,10.827274 17.2616478,11.8365939 C17.2616478,13.0561898 16.5467119,13.3926298 15.1588961,14.0234538 C14.7804009,14.1916737 14.2757402,14.4019489 13.7290243,14.6963337 C12.7617603,15.8318177 12.0468244,16.2944255 11.4160004,16.1682576 C10.7851764,16.0420925 10.5328445,15.4112658 10.3646245,14.9907177 C10.3225697,14.9066077 10.2805145,14.7804426 10.2384593,14.6963326 C10.1122942,14.7383874 9.69174344,14.9066077 8.76653541,15.8738725 C8.76653541,15.9579825 8.80859022,16.0841476 8.97681059,16.4205884 C9.14503058,16.7570284 9.06092058,17.1355243 8.8085906,17.3458002 C8.64037062,17.4299102 8.47215063,17.471965 8.30393064,17.471965 L8.30394783,17.471965 Z M7.37873599,7.00025534 C6.66380009,7.46285935 4.4348843,10.1543791 4.4348843,10.743151 C4.4348843,11.247811 4.60310429,13.8552227 8.09366807,16.4626229 C7.92544808,16.126183 7.7992829,15.5794671 8.13572326,15.285083 C8.34599843,15.0748079 8.80860321,14.6122031 9.22915509,14.3178191 C9.48148507,14.1075439 10.280531,13.5187751 10.8272469,14.0234339 C10.9954669,14.1916539 11.0795769,14.4019291 11.1636869,14.6542579 C11.2477968,14.9065879 11.4160168,15.2850819 11.5842387,15.3271378 C11.6683487,15.3271378 12.0888987,15.3271378 13.1402746,14.107542 C13.2243846,14.023432 13.3084946,13.9813768 13.3926045,13.939322 C13.9393205,13.6449368 14.4439804,13.434662 14.8224764,13.266442 C16.2523482,12.5935621 16.4626203,12.5094502 16.4626203,11.8365702 C16.4626203,11.0375263 16.0841251,10.3646463 15.7476844,10.1543704 C15.5794644,10.0702604 15.4532992,10.0702604 15.4112444,10.1123152 C14.9906925,10.3225904 14.6122004,10.4067003 14.2757604,10.5328671 C13.8972653,10.616977 13.6028805,10.7431422 13.4346605,10.869307 C13.2664405,11.037527 12.8879446,11.205747 12.2991765,10.8272522 C12.2991765,10.8272522 10.8272526,9.85998825 10.9954726,9.22916043 C11.0375274,9.01888526 11.2478026,8.89272046 11.4580766,8.89272046 C11.7104066,8.89272046 13.0561684,8.51422529 13.4346605,7.79928863 C13.6028805,7.50490346 13.6028805,7.21051676 13.4346605,6.87407679 C13.2664405,6.7058568 13.0982205,6.66380161 13.0141086,6.66380161 C12.9720538,6.66380161 12.9299986,6.70585642 12.8879434,6.7899668 C12.8458886,6.91613198 12.6776683,7.25257081 12.3412275,7.25257081 C12.0468424,7.29462561 11.8365676,7.04229563 11.7524557,6.87407564 C11.7524557,6.83202084 11.7104009,6.78996565 11.6683457,6.78996565 C11.6262905,6.78996565 11.5842357,6.83202046 11.5421809,6.87407564 C11.2477957,7.16846081 10.995465,7.50489964 10.785189,7.75723153 C10.3646371,8.30394745 10.0281972,8.68244337 9.56559315,8.68244337 C9.18709799,8.68244337 8.85065725,8.3460034 8.21983325,7.7151794 C7.92544808,7.46284942 7.58900925,7.12640753 7.37873331,7.0002435 L7.37873599,7.00025534 Z M28.0697956,19.99524 C27.9856856,19.99524 27.9436304,19.99524 27.9015756,19.9531848 C26.5558157,19.6167448 24.0745642,16.5887851 22.2241558,14.0654662 C21.8877158,13.6028622 21.7615518,12.9720343 21.9718258,12.4253222 L22.3082658,11.4160023 C22.434431,11.0795623 22.350321,10.7431224 22.1400458,10.4907905 C21.9297706,10.2384605 21.5933299,10.1122953 21.2568899,10.1543505 C20.373734,10.2805157 19.5326341,9.73379862 19.280306,8.85064655 L18.817702,7.16844668 C18.817702,7.12639187 18.7756468,7.0422815 18.733592,7.00022669 L18.733592,6.9581715 C18.4392068,6.41145559 18.481262,5.73857564 18.817702,5.23391568 L19.154142,4.68719977 C19.616746,3.93020791 20.4999019,3.63582389 21.3410018,3.93020791 C28.4903608,6.49556368 29.8781576,16.2943751 29.0370767,19.0700068 C28.7426916,19.8690508 28.3221408,19.99524 28.0698128,19.99524 L28.0697956,19.99524 Z M21.3409961,9.31327272 C21.887712,9.31327272 22.392372,9.5656027 22.7288119,9.98615267 C23.1073071,10.4487567 23.2334719,11.1216366 23.0652519,11.7104085 L22.7288119,12.7197284 C22.6447019,13.0141136 22.6867568,13.3505524 22.8549771,13.6028843 C25.2100569,16.7570081 27.1446002,18.8597446 28.0277331,19.1541477 C28.2380083,18.8597625 28.5323931,17.3878359 28.1538983,14.9065768 C27.8595132,13.014101 26.4296425,6.70583809 21.0045393,4.77132542 C20.5839874,4.60310543 20.0793275,4.77132542 19.8269994,5.1918773 L19.4905594,5.69653726 C19.3223394,5.99092243 19.3223394,6.32736126 19.4485042,6.6217491 L19.4485042,6.66380391 C19.4905594,6.7479139 19.5326142,6.87407908 19.5746694,7.00024388 L20.0372734,8.68244375 C20.1634386,9.14504776 20.6260453,9.43943561 21.0886493,9.39737966 C21.2148145,9.31326966 21.2568693,9.31326966 21.3409793,9.31326966 L21.3409961,9.31327272 Z M16.7990602,28.868851 C16.4205651,28.868851 15.5374084,28.6585759 15.1589163,26.8081552 C15.0748063,26.3034953 14.9906963,25.8408913 14.9065863,25.4203394 C14.6542564,23.9484154 14.5280912,23.2334795 14.0234305,22.9811476 C13.1823305,22.5605958 12.4673946,20.7942878 12.5094506,19.406472 C12.5515054,18.270988 13.0982224,17.4298881 14.0654864,17.0513921 C14.1495964,17.009337 16.6308422,16.0420722 18.1868627,17.0934473 C18.8176867,17.5139992 19.4905667,18.2289313 20.2475585,19.1961991 C20.9204385,20.1214109 21.0886585,21.2568949 20.7101625,22.3503229 C20.4157774,23.2334788 20.0372826,23.8643028 19.6587867,24.2848547 C18.7335748,25.2100665 17.9345308,26.9343185 17.9345308,27.6492544 C17.9345308,28.2800784 17.513979,28.7847384 16.9252109,28.868851 L16.7990457,28.868851 L16.7990602,28.868851 Z M16.3364562,17.5560636 C15.5374123,17.5560636 14.7383644,17.8083935 14.4019245,17.9345587 C13.7711005,18.1868887 13.4767126,18.6915506 13.4346605,19.4485386 C13.3926057,20.7101904 14.1075404,21.9718384 14.4439804,22.1400584 C15.3691923,22.6026624 15.5374123,23.6540383 15.8317963,25.2521301 C15.9159063,25.672682 16.0000163,26.135286 16.0841263,26.6399459 C16.2944014,27.6072099 16.6308422,27.9857058 16.8411181,27.9436499 C16.9252281,27.9436499 17.0093381,27.8174847 17.0093381,27.6492647 C17.0093381,26.5978888 17.9766021,24.6633609 18.985922,23.6540448 C19.2803072,23.3596596 19.5746939,22.8129448 19.8270219,22.0980089 C20.1214071,21.3410171 19.9531871,20.4999172 19.490582,19.8270372 C18.817702,18.9438813 18.186878,18.2710014 17.682218,17.9345614 C17.3037229,17.6401762 16.7990622,17.5560636 16.3364581,17.5560636 L16.3364562,17.5560636 Z" id="形状"></path>
                    </g>
                </g>
            </g>
        </g>
    </g>
</svg>