<?xml version="1.0" encoding="UTF-8"?>
<svg width="28px" height="30px" viewBox="0 0 28 30" version="1.1" xmlns="http://www.w3.org/2000/svg" xmlns:xlink="http://www.w3.org/1999/xlink">
    <!-- Generator: Sketch 60 (88103) - https://sketch.com -->
    <title>icon-地图-下降告警</title>
    <desc>Created with Sketch.</desc>
    <g id="机械监控" stroke="none" stroke-width="1" fill="none" fill-rule="evenodd">
        <g id="机械监控-全港机械" transform="translate(-641.000000, -641.000000)" fill-rule="nonzero">
            <g id="地图标签" transform="translate(207.000000, 431.000000)">
                <g id="icon-地图-下降告警" transform="translate(428.000000, 205.000000)">
                    <rect id="矩形" fill="#000000" opacity="0" x="0" y="0" width="40" height="40"></rect>
                    <path d="M33.671875,18.1757812 L30.5078125,18.1757812 C30.328125,18.1757812 30.15625,18.2539062 30.0351563,18.390625 L21.484375,28.2460937 L21.484375,6.25 C21.484375,6.078125 21.34375,5.9375 21.171875,5.9375 L18.828125,5.9375 C18.65625,5.9375 18.515625,6.078125 18.515625,6.25 L18.515625,28.2460937 L9.96484375,18.390625 C9.84765625,18.2539062 9.67578125,18.1757812 9.4921875,18.1757812 L6.328125,18.1757812 C6.0625,18.1757812 5.91796875,18.4921875 6.09375,18.6914062 L19.0585938,33.6328125 C19.5546875,34.2070312 20.4453125,34.2070312 20.9453125,33.6328125 L33.90625,18.6914062 C34.0820312,18.4882812 33.9375,18.1757812 33.671875,18.1757812 Z" id="路径" fill="#FFFFFF"></path>
                </g>
            </g>
        </g>
    </g>
</svg>