<?xml version="1.0" encoding="UTF-8"?>
<svg width="26px" height="26px" viewBox="0 0 26 26" version="1.1" xmlns="http://www.w3.org/2000/svg" xmlns:xlink="http://www.w3.org/1999/xlink">
    <!-- Generator: Sketch 60 (88103) - https://sketch.com -->
    <title>icon-进度延迟告警</title>
    <desc>Created with Sketch.</desc>
    <g id="船舶监控" stroke="none" stroke-width="1" fill="none" fill-rule="evenodd">
        <g id="船舶监控-全港船舶" transform="translate(-54.000000, -314.000000)" fill="#FFFFFF" fill-rule="nonzero">
            <g id="告警图例" transform="translate(54.000000, 276.000000)">
                <g id="icon-进度延迟告警" transform="translate(0.000000, 38.000000)">
                    <path fill="red" d="M11.826276,0.065609375 C9.34327603,0.282276033 6.85160937,1.28327603 4.87127603,2.86060937 C4.39894269,3.23760937 3.23760937,4.39894272 2.86060937,4.87127603 C-0.922390625,9.62060937 -0.922390625,16.324276 2.86060937,21.0779427 C3.23760937,21.5502761 4.39894272,22.7116094 4.87127603,23.0886094 C9.62494269,26.8716094 16.324276,26.8716094 21.0779427,23.0886094 C21.5502761,22.7116094 22.7116094,21.550276 23.0886094,21.0779427 C26.8716094,16.3242761 26.8716094,9.62060937 23.0886094,4.87127603 C22.7116094,4.39894269 21.550276,3.23760937 21.0779427,2.86060937 C18.4736094,0.784942717 15.1456094,-0.220390625 11.826276,0.065609375 Z M20.1679427,8.53294272 L20.1679427,9.29127603 L5.56460937,9.29127603 L5.56460937,7.77460938 L20.1679427,7.77460938 L20.1679427,8.53294272 Z M14.6429427,11.4666094 C14.6559427,11.5229427 14.6602761,11.8696094 14.6559427,12.2379427 L14.6429427,12.9096094 L10.1059427,12.9226094 L5.56460937,12.931276 L5.56460937,12.1816094 C5.56460937,11.7656094 5.57760937,11.4146094 5.59494272,11.4016094 C5.60794272,11.384276 7.64460937,11.371276 10.1189427,11.371276 L14.621276,11.371276 L14.6429427,11.4666094 L14.6429427,11.4666094 Z M18.8159427,12.567276 C19.6956094,12.7449427 20.5232761,13.2996094 21.030276,14.049276 C21.940276,15.401276 21.8059427,17.221276 20.7009427,18.391276 C20.1982761,18.9286094 19.7476094,19.2059427 19.054276,19.4139427 C18.729276,19.5136094 18.5949427,19.5266094 18.1096094,19.5266094 C17.624276,19.5266094 17.494276,19.5136094 17.156276,19.4139427 C16.506276,19.2189427 16.1336094,18.9936094 15.635276,18.4996094 C15.2756094,18.1399427 15.167276,17.9969427 15.0026094,17.676276 C14.3396094,16.389276 14.465276,14.9766094 15.3406094,13.8369427 C16.129276,12.8099427 17.520276,12.3029427 18.8159427,12.567276 L18.8159427,12.567276 Z M12.9659427,16.298276 L12.9529427,17.0696094 L5.58627603,17.0696094 L5.57327603,16.3546094 C5.56894269,15.9646094 5.57327603,15.6179427 5.58194272,15.5876094 C5.59927606,15.544276 6.32294272,15.531276 9.29127603,15.531276 L12.9746094,15.531276 L12.9659427,16.298276 Z" id="形状"></path>
                    <path fill="red" d="M17.3339427,13.997276 C17.3209427,14.036276 17.3079427,14.7209427 17.3079427,15.5269427 C17.3079427,16.6276094 17.3209427,17.0046094 17.364276,17.0609427 C17.4119427,17.1302761 17.546276,17.1346094 18.9329427,17.1259427 L20.4496094,17.1129427 L20.4626094,16.6059427 L20.4756094,16.0946094 L19.4226094,16.0859427 L18.3696094,16.0729427 L18.3566094,14.998276 L18.3479427,13.9279427 L17.8539427,13.9279427 C17.4422761,13.9279427 17.3556094,13.9409427 17.3339427,13.997276 Z" id="路径"></path>
                </g>
            </g>
        </g>
    </g>
</svg>