<?xml version="1.0" encoding="UTF-8"?>
<svg width="26px" height="26px" viewBox="0 0 26 26" version="1.1" xmlns="http://www.w3.org/2000/svg" xmlns:xlink="http://www.w3.org/1999/xlink">
    <!-- Generator: Sketch 60 (88103) - https://sketch.com -->
    <title>icon-支线船舶等泊超时告警</title>
    <desc>Created with Sketch.</desc>
    <g id="船舶监控" stroke="none" stroke-width="1" fill="none" fill-rule="evenodd">
        <g id="船舶监控-全港船舶" transform="translate(-54.000000, -351.000000)" fill="#FFFFFF">
            <g id="告警图例" transform="translate(54.000000, 276.000000)">
                <g id="icon-支线船舶等泊超时告警" transform="translate(0.000000, 75.000000)">
                    <path fill="#FFDE1E" d="M13,0 C20.1797017,0 26,5.82029825 26,13 C26,20.1797017 20.1797017,26 13,26 C5.82029825,26 0,20.1797017 0,13 C0,5.82029825 5.82029825,0 13,0 Z M17.73677,5 L8.26323004,5 C7.56650007,5 7,5.55220347 7,6.23090289 L7,6.23090289 L7,7.77248539 C7,8.83901305 7.40336998,9.86314372 8.13608454,10.655481 L8.13608454,10.655481 L10.3044124,13.0008688 L8.13745538,15.343824 C7.4040554,16.1365088 7,17.1606394 7,18.2278621 L7,18.2278621 L7,19.7690971 C7,20.448144 7.56650007,21 8.26323004,21 L8.26323004,21 L17.73677,21 C18.4334999,21 19,20.448144 19,19.7694446 L19,19.7694446 L19,18.2282096 C19,17.1609869 18.5962873,16.1368563 17.8628873,15.3441715 L17.8628873,15.3441715 L15.6955876,13.0012163 L17.8642582,10.6558285 C18.59663,9.86314372 19,8.83936057 19,7.77283291 L19,7.77283291 L19,6.23090289 C19,5.55220347 18.4334999,5 17.73677,5 L17.73677,5 Z M16.1579038,17.0000869 L16.1579038,17.9230903 C16.1579038,18.2629613 15.8751678,18.5385417 15.5262887,18.5385417 L15.5262887,18.5385417 L10.4737113,18.5385417 C10.1248322,18.5385417 9.84209624,18.2629613 9.84209624,17.9230903 L9.84209624,17.9230903 L9.84209624,17.0000869 L16.1579038,17.0000869 Z" id="形状结合"></path>
                </g>
            </g>
        </g>
    </g>
</svg>