<?xml version="1.0" encoding="UTF-8"?>
<svg width="26px" height="27px" viewBox="0 0 26 27" version="1.1" xmlns="http://www.w3.org/2000/svg" xmlns:xlink="http://www.w3.org/1999/xlink">
    <!-- Generator: Sketch 60 (88103) - https://sketch.com -->
    <title>icon-靠离泊时间延后告警</title>
    <desc>Created with Sketch.</desc>
    <g id="船舶监控" stroke="none" stroke-width="1" fill="none" fill-rule="evenodd">
        <g id="船舶监控-全港船舶" transform="translate(-54.000000, -276.000000)" fill="#FFFFFF" fill-rule="nonzero">
            <g id="告警图例" transform="translate(54.000000, 276.000000)">
                <g id="icon-靠离泊时间延后告警">
                    <path fill="red" d="M12.9523575,2.8394119 C19.4249509,2.8394119 24.5979782,7.99789377 24.5979782,14.4458366 C24.5979782,20.8889565 19.4200004,26.0474639 12.9523575,26.0474639 C6.47981509,26.0474639 1.30663474,20.8889565 1.30663474,14.4458366 C1.30663474,7.99789377 6.47981509,2.8394119 12.9523575,2.8394119 M18.7727564,17.9273379 L13.5947275,14.8333052 L13.5947275,7.99789377 L11.6529699,7.99789377 L11.6529699,15.7305767 L17.7332463,19.471981 L18.7727564,17.9273379 Z M25.8973913,5.0262975 L19.9397809,0.000306218593 L18.2579264,1.93229036 L24.2106627,6.96325769 L25.8973913,5.0262975 L25.8973913,5.0262975 Z M1.68910176,6.96805512 L0.00722165515,5.03127356 L5.96493405,0.132694724 L7.64681415,2.06462783 L1.68910176,6.96805512 Z" id="形状"></path>
                </g>
            </g>
        </g>
    </g>
</svg>