<?xml version="1.0" encoding="UTF-8"?>
<svg width="45px" height="52px" viewBox="0 0 45 52" version="1.1" xmlns="http://www.w3.org/2000/svg" xmlns:xlink="http://www.w3.org/1999/xlink">
    <!-- Generator: Sketch 60 (88103) - https://sketch.com -->
    <title>二级黄色告警</title>
    <desc>Created with Sketch.</desc>
    <defs>
        <radialGradient cx="50%" cy="50%" fx="50%" fy="50%" r="50%" gradientTransform="translate(0.500000,0.500000),scale(0.371429,1.000000),rotate(90.000000),scale(1.000000,2.593014),translate(-0.500000,-0.500000)" id="radialGradient-1">
            <stop stop-color="#B07801" offset="0%"></stop>
            <stop stop-color="#FFDF1F" stop-opacity="0.750682911" offset="100%"></stop>
        </radialGradient>
        <linearGradient x1="50%" y1="3.38919948%" x2="50%" y2="98.4992448%" id="linearGradient-2">
            <stop stop-color="#FDCB7B" offset="0%"></stop>
            <stop stop-color="#FFB109" offset="100%"></stop>
        </linearGradient>
    </defs>
    <g id="页面-1" stroke="none" stroke-width="1" fill="none" fill-rule="evenodd">
        <g id="监控-码头总览" transform="translate(-804.000000, -437.000000)">
            <g id="标签" transform="translate(567.000000, 314.000000)">
                <g id="编组-20" transform="translate(235.000000, 92.000000)">
                    <g id="二级黄色告警" transform="translate(2.000000, 31.000000)">
                        <ellipse id="椭圆形备份-37" fill="#FFB109" opacity="0.471447173" cx="22.5" cy="41.5" rx="22.5" ry="10.5"></ellipse>
                        <ellipse id="椭圆形备份-37" fill="url(#radialGradient-1)" cx="22.5" cy="39.5" rx="17.5" ry="6.5"></ellipse>
                        <path d="M42.9974207,12.725128 L38.8986109,16.7511164 L39.7615183,17.3867988 C40.1929719,17.8105871 39.7615183,18.2343753 39.7615183,18.8700577 C39.7615183,21.6246814 34.5840743,29.8885524 24.876367,30.3123407 L24.876367,16.9630105 L33.0739865,16.9630105 L33.0739865,12.3013397 L24.6606402,12.3013397 L24.6606402,11.0299749 C27.0336353,9.97050427 28.3279963,7.63966884 28.3279963,5.30883342 C28.3279963,1.91852735 25.7392743,0.011480184 22.7190987,0.011480184 C19.0517426,-0.200413945 16.4630206,2.55420974 16.4630206,5.52072755 C16.4630206,7.85156297 17.7573816,9.54671601 19.6989231,10.8180808 L19.6989231,12.0894456 L11.5013035,12.0894456 L11.5013035,16.7511164 L19.9146499,16.7511164 L19.9146499,30.3123407 C11.5013035,30.1004466 5.24522544,21.8365755 5.24522544,19.0819518 C5.24522544,18.6581636 5.24522544,18.0224812 5.6766791,17.5986929 L6.75531325,16.9630105 L2.00932298,12.725128 C1.57786932,30.736129 16.2472938,35.1859057 19.9146499,36.0334822 L22.5033718,39 L24.876367,36.4572704 C29.8380841,35.3977998 43.2131475,30.736129 42.9974207,12.725128 Z M22.0719182,2.977998 C23.3662792,2.977998 24.4449133,4.03746864 24.4449133,5.30883342 C24.6606402,6.36830407 23.582006,8.0634571 22.0719182,8.0634571 C20.993284,8.0634571 19.6989231,7.00398646 19.6989231,5.52072755 C19.6989231,4.24936277 20.7775572,2.977998 22.0719182,2.977998 L22.0719182,2.977998 Z" id="形状" fill="url(#linearGradient-2)" fill-rule="nonzero"></path>
                    </g>
                </g>
            </g>
        </g>
    </g>
</svg>