<?xml version="1.0" encoding="UTF-8"?>
<svg width="50px" height="57px" viewBox="0 0 50 57" version="1.1" xmlns="http://www.w3.org/2000/svg" xmlns:xlink="http://www.w3.org/1999/xlink">
    <!-- Generator: Sketch 60 (88103) - https://sketch.com -->
    <title>一级黄色告警</title>
    <desc>Created with Sketch.</desc>
    <defs>
        <radialGradient cx="50%" cy="50%" fx="50%" fy="50%" r="50%" gradientTransform="translate(0.500000,0.500000),scale(0.382353,1.000000),rotate(90.000000),scale(1.000000,2.593014),translate(-0.500000,-0.500000)" id="radialGradient-1">
            <stop stop-color="#9A8402" offset="0%"></stop>
            <stop stop-color="#FFDF1F" stop-opacity="0.750682911" offset="100%"></stop>
        </radialGradient>
        <linearGradient x1="50%" y1="1.45299952%" x2="50%" y2="98.7457637%" id="linearGradient-2">
            <stop stop-color="#FFF8B6" offset="0%"></stop>
            <stop stop-color="#FFDB09" offset="100%"></stop>
        </linearGradient>
    </defs>
    <g id="吞吐量" stroke="none" stroke-width="1" fill="none" fill-rule="evenodd">
        <g id="吞吐量-单个码头" transform="translate(-923.000000, -263.000000)">
            <g id="编组-8" transform="translate(918.000000, 225.000000)">
                <g id="一级黄色告警" transform="translate(5.000000, 38.750000)">
                    <ellipse id="椭圆形备份-37" fill="#FDD835" opacity="0.471447173" cx="24.6938781" cy="44.8979602" rx="24.6938781" ry="11.22449"></ellipse>
                    <ellipse id="椭圆形备份-37" fill="url(#radialGradient-1)" cx="24.6938781" cy="43.2142867" rx="19.0816331" ry="7.29591853"></ellipse>
                    <path d="M47.1400337,13.9170685 L42.651541,18.3201643 L43.5964868,19.01539 C44.0689598,19.4788738 43.5964868,19.9423575 43.5964868,20.6375832 C43.5964868,23.6502277 37.9268119,32.6881611 27.2961715,33.1516449 L27.2961715,18.5519062 L36.2731568,18.5519062 L36.2731568,13.4535848 L27.059935,13.4535848 L27.059935,12.0631335 C29.658536,10.9044241 31.0759548,8.35526333 31.0759548,5.80610261 C31.0759548,2.09823247 28.2411173,0.0125555128 24.933807,0.0125555128 C20.9177872,-0.219186371 18.0829498,2.79345812 18.0829498,6.03784449 C18.0829498,8.58700522 19.5003685,10.4409403 21.6264966,11.8313916 L21.6264966,13.2218429 L12.6495113,13.2218429 L12.6495113,18.3201643 L21.8627331,18.3201643 L21.8627331,33.1516449 C12.6495113,32.919903 5.79865416,23.8819696 5.79865416,20.8693251 C5.79865416,20.4058413 5.79865416,19.7106156 6.27112707,19.2471319 L7.45230934,18.5519062 L2.25510735,13.9170685 C1.78263444,33.6151287 17.8467133,38.4817082 21.8627331,39.4086758 L24.6975705,42.6530621 L27.2961715,39.8721595 C32.72961,38.7134501 47.3762701,33.6151287 47.1400337,13.9170685 Z M24.2250976,3.25694189 C25.6425163,3.25694189 26.8236986,4.41565131 26.8236986,5.80610261 C27.059935,6.96481203 25.8787528,8.8187471 24.2250976,8.8187471 C23.0439153,8.8187471 21.6264966,7.66003768 21.6264966,6.03784449 C21.6264966,4.64739319 22.8076789,3.25694189 24.2250976,3.25694189 L24.2250976,3.25694189 Z" id="形状" fill="url(#linearGradient-2)" fill-rule="nonzero"></path>
                </g>
            </g>
        </g>
    </g>
</svg>