<?xml version="1.0" encoding="UTF-8"?>
<svg width="20px" height="23px" viewBox="0 0 20 23" version="1.1" xmlns="http://www.w3.org/2000/svg" xmlns:xlink="http://www.w3.org/1999/xlink">
    <title>lianxi-2</title>
    <g id="页面-1" stroke="none" stroke-width="1" fill="none" fill-rule="evenodd">
        <g id="长宁区卫生监督应急指挥系统" transform="translate(-303.000000, -642.000000)" fill="#4F82CD" fill-rule="nonzero">
            <g id="处置力量" transform="translate(65.000000, 534.000000)">
                <g id="编组-3" transform="translate(17.000000, 77.000000)">
                    <g id="lianxi-2" transform="translate(221.000000, 31.000000)">
                        <path d="M0,14.453125 L0,11.8681837 C0.618708054,11.836724 1.05390101,11.3910445 1.04341443,10.8064178 C1.03292785,10.2584941 0.597734899,9.83903104 0,9.80494966 L0,7.22000839 C0.0157298658,7.22263003 0.0314597315,7.22787332 0.0471895973,7.22787332 C0.605599832,7.21738674 1.05652265,6.74024748 1.04603607,6.17397232 C1.0355495,5.62080537 0.558410235,5.16726091 0.0026216443,5.18036913 L0.0026216443,1.85874581 C0.0157298658,1.80631292 0.026216443,1.75125839 0.0393246644,1.6988255 C0.246434564,0.694735738 1.07487416,0.026216443 2.13401846,0.0235947987 C7.33536074,0.0209731544 12.536703,0.0235947987 17.7380453,0.0209731544 C18.0552643,0.0209731544 18.3619966,0.0681627517 18.6477559,0.209731544 C19.4552223,0.605599832 19.8668205,1.25576762 19.8668205,2.1602349 L19.8668205,20.5510696 C19.8668205,20.5956376 19.8668205,20.6375839 19.8641988,20.6821518 C19.8327391,21.5708893 19.2507341,22.3337878 18.396078,22.5880872 C18.2545092,22.6300336 18.1050755,22.6536284 17.9582634,22.6850881 L1.90069211,22.6850881 C1.87447567,22.6772232 1.84825923,22.6667366 1.82204279,22.6641149 C0.946413591,22.5225461 0.364408557,22.0322987 0.0838926174,21.1881292 C0.0471895973,21.0806418 0.0288380872,20.9679111 0.0026216443,20.857802 L0.0026216443,16.4927643 C0.516463926,16.5058725 0.956900168,16.1309773 1.03817114,15.6066485 C1.12992869,15.0062919 0.587248322,14.4033138 0,14.453125 Z M5.45826342,6.73238255 C5.47923658,7.29865772 5.59983221,8.02485319 5.82529362,8.79561661 C6.28145973,10.355495 6.93687081,11.8341023 7.69190436,13.2655201 C8.42858641,14.6628565 9.35402685,15.9238674 10.5259018,16.9908767 C11.0004195,17.423448 11.5090185,17.8088297 12.0910235,18.0893456 C12.5393247,18.3043205 12.9850042,18.3121854 13.4437919,18.1339136 C13.9681208,17.9268037 14.4111787,17.6043414 14.807047,17.2084732 C14.9355076,17.0800126 15.0534815,16.9410654 15.1635906,16.796875 C15.3392408,16.5687919 15.4126468,16.3066275 15.3864304,16.0182466 C15.3628356,15.7482173 15.2684564,15.5279992 15.0561032,15.3313758 C14.534396,14.8594799 14.0415268,14.3561242 13.5329279,13.87112 C13.4306837,13.7741191 13.317953,13.6849832 13.2026007,13.6037122 C12.9299497,13.4149539 12.418729,13.3651426 12.109375,13.6535235 C12.0254824,13.7295512 11.917995,13.7793624 11.8236158,13.8449035 C11.4959102,14.0756082 11.1603398,13.944526 10.9610948,13.7007131 C10.8614723,13.5774958 10.7697148,13.4464136 10.6936871,13.3100881 C10.1431418,12.3191065 9.59521812,11.328125 9.0551594,10.3345218 C8.87688758,10.0041946 8.70910235,9.66862416 8.54393876,9.33305369 C8.39974832,9.03418624 8.44169463,8.81134648 8.70385906,8.60947987 C8.86640101,8.48364094 9.06564597,8.40236997 9.24391779,8.29488255 C9.35664849,8.2267198 9.48510906,8.16642198 9.56900168,8.07204279 C9.79970638,7.80987836 9.88097735,7.4926594 9.79970638,7.15446728 C9.61881292,6.40205537 9.42481124,5.65488674 9.23343121,4.90509648 C9.12594379,4.47776846 8.8244547,4.24706376 8.3866401,4.20511745 C7.59228188,4.12646812 6.91065436,4.39911913 6.28932466,4.85790688 C5.9065646,5.14104446 5.65750839,5.52118289 5.55788591,5.98783557 C5.50807466,6.22902685 5.4923448,6.48332634 5.45826342,6.73238255 L5.45826342,6.73238255 Z" id="形状"></path>
                    </g>
                </g>
            </g>
        </g>
    </g>
</svg>