<?xml version="1.0" encoding="UTF-8"?>
<svg width="17px" height="32px" viewBox="0 0 17 32" version="1.1" xmlns="http://www.w3.org/2000/svg" xmlns:xlink="http://www.w3.org/1999/xlink">
    <title>路况</title>
    <g id="长宁区城市运行管理中心" stroke="none" stroke-width="1" fill="none" fill-rule="evenodd">
        <g id="长宁区城市运行管理中心-20.12.18" transform="translate(-2043.000000, -985.000000)" fill="#FFFFFF" fill-rule="nonzero">
            <g id="编组-63" transform="translate(1668.000000, 964.000000)">
                <g id="编组-86" transform="translate(347.000000, 0.000000)">
                    <g id="路况" transform="translate(28.000000, 21.000000)">
                        <path d="M5.4573589,8.72983079 C5.4573589,10.2101319 6.70576442,11.4585375 8.18606556,11.4585375 C9.6663667,11.4585375 10.9147722,10.2101319 10.9147722,8.72983079 C10.9147722,7.24952965 9.6663667,6.00112413 8.18606556,6.00112413 C6.70576442,6.00112413 5.4573589,7.24952965 5.4573589,8.72983079 Z M5.4573589,15.9008159 C5.4573589,17.381117 6.70576442,18.6295225 8.18606556,18.6295225 C9.6663667,18.6295225 10.9147722,17.381117 10.9147722,15.9008159 C10.9147722,14.4205147 9.6663667,13.1721092 8.18606556,13.1721092 C6.70576442,13.1721092 5.4573589,14.4205147 5.4573589,15.9008159 L5.4573589,15.9008159 Z M5.4573589,23.071801 C5.4573589,24.5521021 6.70576442,25.8005076 8.18606556,25.8005076 C9.6663667,25.8005076 10.9147722,24.5521021 10.9147722,23.071801 C10.9147722,21.5914998 9.6663667,20.3430943 8.18606556,20.3430943 C6.70576442,20.3430943 5.4573589,21.5914998 5.4573589,23.071801 Z" id="形状"></path>
                        <path d="M9.5255814e-06,9.73396568 L9.5255814e-06,22.1330906 C9.5255814e-06,27.2415093 3.65917657,31.4045665 8.16694345,31.4324502 L8.22424584,31.4324502 C12.7272162,31.4000897 16.364735,27.2486082 16.3721216,22.1330906 L16.3721216,9.73396568 C16.3721216,4.6053696 12.7006435,0.434606023 8.18606556,0.434606023 C3.67148764,0.434606023 9.5255814e-06,4.6053696 9.5255814e-06,9.73396568 Z M13.6434149,9.73396568 L13.6434149,22.1330906 C13.6389382,25.5488504 11.2065284,28.3189989 8.19968767,28.332685 C5.18309405,28.3264495 2.72865224,25.5459405 2.72865224,22.1330906 L2.72865224,9.73396568 C2.72865224,6.31488031 5.17628299,3.53437126 8.18600161,3.53437126 C11.1957202,3.53437126 13.6434149,6.31488031 13.6434149,9.73396568 Z" id="形状"></path>
                    </g>
                </g>
            </g>
        </g>
    </g>
</svg>