<?xml version="1.0" encoding="UTF-8"?>
<svg width="20px" height="20px" viewBox="0 0 20 20" version="1.1" xmlns="http://www.w3.org/2000/svg" xmlns:xlink="http://www.w3.org/1999/xlink">
    <title>minus-circle</title>
    <g id="页面-1" stroke="none" stroke-width="1" fill="none" fill-rule="evenodd">
        <g id="长宁区卫生监督应急指挥系统" transform="translate(-973.000000, -225.000000)" fill-rule="nonzero">
            <g id="编组-7" transform="translate(421.000000, 212.000000)">
                <g id="minus-circle" transform="translate(552.000000, 13.000000)">
                    <rect id="矩形" fill="#000000" opacity="0" x="0" y="0" width="20" height="20"></rect>
                    <path d="M13.59375,9.375 L6.40625,9.375 C6.3203125,9.375 6.25,9.4453125 6.25,9.53125 L6.25,10.46875 C6.25,10.5546875 6.3203125,10.625 6.40625,10.625 L13.59375,10.625 C13.6796875,10.625 13.75,10.5546875 13.75,10.46875 L13.75,9.53125 C13.75,9.4453125 13.6796875,9.375 13.59375,9.375 Z" id="路径" fill="#FFAB00"></path>
                    <path d="M10,1.25 C5.16796875,1.25 1.25,5.16796875 1.25,10 C1.25,14.8320312 5.16796875,18.75 10,18.75 C14.8320312,18.75 18.75,14.8320312 18.75,10 C18.75,5.16796875 14.8320312,1.25 10,1.25 Z M10,17.265625 C5.98828125,17.265625 2.734375,14.0117187 2.734375,10 C2.734375,5.98828125 5.98828125,2.734375 10,2.734375 C14.0117187,2.734375 17.265625,5.98828125 17.265625,10 C17.265625,14.0117187 14.0117187,17.265625 10,17.265625 Z" id="形状" fill="#FFAB00"></path>
                </g>
            </g>
        </g>
    </g>
</svg>