<?xml version="1.0" encoding="UTF-8"?>
<svg width="50px" height="49px" viewBox="0 0 50 49" version="1.1" xmlns="http://www.w3.org/2000/svg" xmlns:xlink="http://www.w3.org/1999/xlink">
    <title>病媒生物监测</title>
    <g id="疾控大屏" stroke="none" stroke-width="1" fill="none" fill-rule="evenodd">
        <g id="疾控一网统管9.18修改（聚集性疫情地图显示）" transform="translate(-2286.000000, -106.000000)" fill="#00C2FF" fill-rule="nonzero">
            <g id="分组-42" transform="translate(1376.000000, 96.000000)">
                <g id="编组-10" transform="translate(900.000000, 0.000000)">
                    <g id="病媒生物监测" transform="translate(10.000000, 10.000000)">
                        <path d="M24.6734609,17.6277969 C20.8545781,17.6277969 17.7476172,20.7347031 17.7476172,24.5536406 C17.7476172,28.3725781 20.8545781,31.4795391 24.6734609,31.4795391 C28.4924531,31.4795391 31.5993594,28.3725781 31.5993594,24.5536406 C31.5993594,20.7346484 28.4923984,17.6277969 24.6734609,17.6277969 L24.6734609,17.6277969 Z M24.6734609,28.3316719 C22.5903047,28.3316719 20.8955391,26.6368516 20.8955391,24.5536953 C20.8955391,22.4705391 22.5903594,20.7757188 24.6734609,20.7757188 C26.7566719,20.7757188 28.4514375,22.4704844 28.4514375,24.5536953 C28.4514375,26.6369063 26.7566172,28.3316719 24.6734609,28.3316719 Z M47.465625,22.9796797 L45.7819063,22.9796797 C45.6136875,20.6783203 45.0753984,18.4426953 44.1752969,16.3144219 C43.1091641,13.7938203 41.5833281,11.5304687 39.6399531,9.58714844 C37.6966875,7.64382812 35.4332266,6.1179375 32.9126797,5.05180469 C30.7821641,4.15060938 28.5439141,3.61232031 26.239875,3.44464844 L26.239875,1.76185938 C26.239875,0.89265625 25.5351719,0.187953125 24.6659687,0.187953125 C23.7967656,0.187953125 23.0920625,0.89265625 23.0920625,1.76185938 L23.0920625,3.44563281 C20.7933828,3.61445313 18.5602187,4.15252344 16.4344062,5.05164062 C13.9138047,6.11777344 11.6503984,7.64366406 9.70713281,9.58698438 C7.76386719,11.5303047 6.23792187,13.7937109 5.17178906,16.3142578 C4.27163281,18.4424766 3.73334375,20.6782109 3.56517969,22.9795156 L1.85078125,22.9795156 C0.981578125,22.9795156 0.276875,23.6842187 0.276875,24.5534219 C0.276875,25.422625 0.981578125,26.1273281 1.85078125,26.1273281 L3.56517969,26.1273281 C3.73339844,28.4286875 4.27163281,30.6643125 5.17178906,32.7925312 C6.23792187,35.3131328 7.7638125,37.5765391 9.70713281,39.5198594 C11.6504531,41.463125 13.9138594,42.9890703 16.4344062,44.0552031 C18.562625,44.9553594 20.7983047,45.4936484 23.0996094,45.6618125 L23.0996094,47.2784297 C23.0996094,48.1476328 23.8043125,48.8523359 24.6735156,48.8523359 C25.5427187,48.8523359 26.2474219,48.1476328 26.2474219,47.2784297 L26.2474219,45.6619219 C28.5487812,45.4937031 30.7844609,44.9554141 32.9126797,44.0553125 C35.4332813,42.9891797 37.6966875,41.4632891 39.6399531,39.5199688 C41.5832734,37.5766484 43.1091641,35.3131875 44.1752969,32.7926406 C45.0754531,30.6644766 45.6136875,28.4287422 45.7819063,26.1274375 L47.465625,26.1274375 C48.3348281,26.1274375 49.0395313,25.4227344 49.0395313,24.5535312 C49.0395313,23.6843281 48.3347734,22.9795703 47.4655703,22.9795703 L47.465625,22.9796797 Z M26.2473672,42.5020234 L26.2473672,38.832 C26.2473672,37.9627969 25.5426641,37.2580938 24.6734609,37.2580938 C23.8042578,37.2580938 23.0995547,37.9627969 23.0995547,38.832 L23.0995547,42.5020234 C14.41775,41.7470078 7.48009375,34.8094063 6.72513281,26.1275469 L10.5597656,26.1275469 C11.4289688,26.1275469 12.1336719,25.4228438 12.1336719,24.5536406 C12.1336719,23.6844375 11.4289688,22.9797344 10.5597656,22.9797344 L6.72513281,22.9797344 C7.479875,14.3003906 14.4136484,7.36432031 23.0920078,6.60591406 L23.0920078,10.1561719 C23.0920078,11.025375 23.7967109,11.7300781 24.6659141,11.7300781 C25.5351172,11.7300781 26.2398203,11.025375 26.2398203,10.1561719 L26.2398203,6.60454688 C34.9251797,7.35617188 41.8665547,14.29525 42.6217891,22.9796797 L38.7564219,22.9796797 C37.8872187,22.9796797 37.1825156,23.6843828 37.1825156,24.5535859 C37.1825156,25.4227891 37.8872187,26.1274922 38.7564219,26.1274922 L42.6217891,26.1274922 C41.8668281,34.8093516 34.9293359,41.7470625 26.2473672,42.5020234 L26.2473672,42.5020234 Z" id="形状"></path>
                    </g>
                </g>
            </g>
        </g>
    </g>
</svg>