<?xml version="1.0" encoding="UTF-8"?>
<svg width="44px" height="44px" viewBox="0 0 44 44" version="1.1" xmlns="http://www.w3.org/2000/svg" xmlns:xlink="http://www.w3.org/1999/xlink">
    <title>疫情分布</title>
    <g id="疾控大屏" stroke="none" stroke-width="1" fill="none" fill-rule="evenodd">
        <g id="疾控一网统管9.18修改（聚集性疫情地图显示）" transform="translate(-1912.000000, -108.000000)" fill="#00C2FF" fill-rule="nonzero">
            <g id="分组-42" transform="translate(1376.000000, 96.000000)">
                <g id="疫情分布" transform="translate(536.000000, 12.000000)">
                    <g id="分组" transform="translate(0.730472, 0.730472)">
                        <path d="M41.6458444,18.3343573 C41.0124843,17.3795905 40.0860769,16.6611522 38.9706069,16.2593939 C38.214356,15.9899795 37.6282616,15.427518 37.3163081,14.6759936 C37.0090812,13.9339225 37.032714,13.1209528 37.38248,12.3883347 C37.8929494,11.3154038 38.0489261,10.1573946 37.8267774,9.03719802 C37.6282616,8.00207962 37.1177922,7.04731289 36.3520882,6.2768823 C35.5958373,5.51117829 34.6457972,4.99125581 33.6059522,4.77856025 C32.4857556,4.54695842 31.3230199,4.69348202 30.2453624,5.1992248 C29.5221975,5.54426426 28.7092278,5.56317054 27.9577034,5.25121705 C27.2156323,4.94399013 26.6578972,4.35316913 26.3884829,3.58746511 C25.9961777,2.4672685 25.282466,1.5361346 24.3324258,0.902774488 C23.4580107,0.316680056 22.4228923,0.004726568 21.3357817,0 L21.3168754,0 C20.2439445,0 19.2088261,0.30722692 18.3296844,0.883868216 C17.3749177,1.51722833 16.6564794,2.44363566 16.2547211,3.5591057 C15.9853067,4.31535658 15.4228451,4.90617758 14.6713208,5.2134045 C13.9292496,5.52063142 13.1162799,5.49699858 12.3836619,5.14723255 C11.310731,4.63676321 10.1527218,4.48078646 9.03252518,4.70293516 C7.99740678,4.90145102 7.04264005,5.41192036 6.27220946,6.17762438 C5.50650545,6.93387526 4.98658297,7.88391542 4.77388741,8.92376038 C4.54228558,10.043957 4.68880918,11.2066927 5.19927853,12.2843502 C5.54431799,13.0075151 5.56322426,13.8204848 5.25127078,14.5720091 C4.94404386,15.3140803 4.35322286,15.8718153 3.58751884,16.1412297 C2.46732222,16.5335349 1.53618833,17.2472466 0.902828215,18.1972868 C0.316733783,19.0717019 0.00478029545,20.1068203 0,21.1939309 C-0.00467284055,22.276315 0.302554079,23.3114334 0.883921943,24.1953016 C1.51728206,25.1500683 2.44368938,25.8685067 3.55915943,26.2702649 C4.31541031,26.5396793 4.90623131,27.1021409 5.21345823,27.8536652 C5.52068515,28.5957364 5.49705231,29.4087061 5.14728628,30.1413241 C4.63681694,31.2142551 4.48084019,32.3722642 4.70298889,33.4924608 C4.90150474,34.5228527 5.41197409,35.4728928 6.1776781,36.2527766 C6.93392898,37.0184806 7.88396915,37.5384031 8.92854068,37.7510986 C10.0534639,37.9779739 11.2161996,37.8314503 12.2891305,37.3257075 C13.0122954,36.980668 13.8252651,36.9617618 14.5767894,37.2737152 C15.3188606,37.5809422 15.8765956,38.1717632 16.14601,38.9374672 C16.5383152,40.0576638 17.2520269,40.9887977 18.2020671,41.6221578 C19.0764822,42.2082522 20.1116006,42.5202057 21.1987112,42.5249323 L21.2176175,42.5249323 C22.2858218,42.5249323 23.3162137,42.2177054 24.2048085,41.6410641 C25.1595752,41.007704 25.873287,40.0860232 26.2797718,38.9658266 C26.5491862,38.2095757 27.1116478,37.6187547 27.8631721,37.3115278 C28.6052433,37.0043009 29.418213,37.0279337 30.150831,37.3776997 C31.2237619,37.8881691 32.3817711,38.0441458 33.5019677,37.8219971 C34.5370861,37.6234813 35.4918528,37.1082854 36.2622834,36.3473079 C37.0279874,35.591057 37.5479099,34.6410169 37.7606055,33.6011719 C37.9922073,32.4809753 37.8456837,31.3182396 37.3399409,30.2405821 C36.9949015,29.5126906 36.9759952,28.6997209 37.2879487,27.9529232 C37.5951756,27.210852 38.1859966,26.653117 38.9517006,26.3837026 C40.0718972,25.9913974 40.9983046,25.2776857 41.6363912,24.3276455 C42.2224857,23.4532304 42.5344392,22.418112 42.5391657,21.3310014 C42.5344392,20.2580704 42.2272122,19.2182255 41.6458444,18.3343573 L41.6458444,18.3343573 Z M35.0097429,31.3371458 C35.6336499,32.6653114 35.1279071,33.8611332 34.4472813,34.5370324 C33.7666555,35.2129316 32.5661072,35.7092212 31.2473948,35.0758611 C29.8766901,34.4188682 28.2838366,34.3716025 26.8800459,34.9529704 C25.4715287,35.5343382 24.3749649,36.6828942 23.8644956,38.1103178 C23.3729325,39.4857491 22.1723842,39.9725856 21.2128909,39.9725856 L21.2034378,39.9725856 C20.2439445,39.967859 19.0433962,39.4715694 18.5565597,38.0914115 C18.0555435,36.6592614 16.9637063,35.4965257 15.5599156,34.9151578 C14.9076492,34.6457434 14.1892109,34.5039464 13.4896788,34.5039464 C12.7003419,34.5039464 11.9062785,34.6788294 11.1972933,35.0144157 C9.86912771,35.6383227 8.67330601,35.1325799 7.99268022,34.4519542 C7.31678099,33.7713284 6.82049135,32.5707801 7.45385146,31.2520676 C8.11084442,29.8813629 8.1581101,28.2885095 7.57674223,26.8847188 C6.99537437,25.4762015 5.84681834,24.3796377 4.41939481,23.8691684 C3.03923695,23.3728788 2.54767388,22.1676039 2.55236673,21.2081106 C2.55712702,20.2486173 3.05341666,19.048069 4.43357451,18.5612325 C5.86572462,18.0602163 7.02846034,16.9683791 7.60982821,15.5645884 C8.19592264,14.1655243 8.1581101,12.5726709 7.51057028,11.2019662 C6.8866633,9.87380055 7.39240608,8.67797885 8.07303187,7.99735306 C8.75365766,7.32145383 9.95420594,6.82516419 11.2729184,7.4585243 C12.6436231,8.11551726 14.2364765,8.16278294 15.6402672,7.58141507 C17.0487845,7.00004721 18.1453483,5.85149118 18.6558176,4.42406765 C19.1473807,3.04863636 20.347929,2.56179986 21.3074223,2.56179986 L21.3168754,2.56179986 C22.2763687,2.56652642 23.476917,3.06281606 23.9637535,4.44297392 C24.4647697,5.87512402 25.5566069,7.03313318 26.9603976,7.61922762 C28.3594617,8.20059548 29.9523151,8.1675095 31.3230199,7.51996969 C32.6511855,6.89606271 33.8470072,7.40180549 34.527633,8.08243128 C35.2035322,8.76305707 35.6998218,9.96360534 35.0664617,11.2823178 C34.4094688,12.6530225 34.3622031,14.245876 34.943571,15.6496666 C35.5249388,17.0581839 36.6734948,18.1547477 38.1009184,18.665217 C39.4810762,19.1615067 39.9726393,20.3667815 39.9679465,21.3262748 C39.9631862,22.2857681 39.4668965,23.4863164 38.0867387,23.9731529 C36.6545886,24.4741691 35.4965794,25.5660063 34.910485,26.969797 C34.3291171,28.3688611 34.3622031,29.9617146 35.0097429,31.3371458 L35.0097429,31.3371458 Z" id="形状"></path>
                        <path d="M19.855556,13.927778 C19.855556,11.7630099 18.0925462,10 15.927778,10 C13.7630099,10 12,11.7630099 12,13.927778 C12,16.0925462 13.7630099,17.855556 15.927778,17.855556 C18.0925462,17.855556 19.855556,16.0925462 19.855556,13.927778 L19.855556,13.927778 Z M15.1762537,13.9230514 C15.1762537,13.5071135 15.51184,13.1715271 15.927778,13.1715271 C16.343716,13.1715271 16.6793023,13.5071135 16.6793023,13.9230514 C16.6793023,14.3389894 16.343716,14.6745758 15.927778,14.6745758 C15.51184,14.6745758 15.1762537,14.3342629 15.1762537,13.9230514 Z M17.6860613,23.7448597 C15.5307463,23.7448597 13.7819161,25.4984165 13.7819161,27.6490049 C13.7819161,29.8043199 15.5354729,31.5531501 17.6860613,31.5531501 C18.7306328,31.5531501 19.713759,31.1466652 20.4511036,30.4045941 C21.1884482,29.6672494 21.594933,28.6841233 21.5902472,27.6490049 C21.594933,25.4984165 19.8413763,23.7448597 17.6860613,23.7448597 L17.6860613,23.7448597 Z M19.0331332,27.6490049 C19.0331332,28.3910761 18.4281325,28.9960768 17.6860613,28.9960768 C16.9439901,28.9960768 16.3389894,28.3910761 16.3389894,27.6490049 C16.3389894,26.9069337 16.9439901,26.301933 17.6860613,26.301933 C18.4281325,26.301933 19.0331332,26.9069337 19.0331332,27.6490049 Z M28.2830268,12.8264877 C25.6125158,12.8264877 23.4430211,15.0007089 23.4430211,17.6664933 C23.4430211,20.3370042 25.6172424,22.5064989 28.2830268,22.5064989 C30.9535377,22.5064989 33.1230324,20.3322776 33.1230324,17.6664933 C33.1230324,15.0007089 30.9535377,12.8264877 28.2830268,12.8264877 Z M30.5659591,17.6759464 C30.5659591,18.9332135 29.5402938,19.9588788 28.2830268,19.9588788 C27.0257597,19.9588788 26.0000944,18.9332135 26.0000944,17.6759464 C26.0000944,16.4186793 27.0257597,15.3930141 28.2830268,15.3930141 C29.5402938,15.3930141 30.5659591,16.4139528 30.5659591,17.6759464 Z" id="形状"></path>
                    </g>
                </g>
            </g>
        </g>
    </g>
</svg>