<?xml version="1.0" encoding="UTF-8"?>
<svg width="45px" height="41px" viewBox="0 0 45 41" version="1.1" xmlns="http://www.w3.org/2000/svg" xmlns:xlink="http://www.w3.org/1999/xlink">
    <title>医疗设施</title>
    <g id="疾控大屏" stroke="none" stroke-width="1" fill="none" fill-rule="evenodd">
        <g id="疾控一网统管9.18修改（聚集性疫情地图显示）" transform="translate(-1735.000000, -110.000000)" fill="#00C2FF" fill-rule="nonzero">
            <g id="分组-42" transform="translate(1376.000000, 96.000000)">
                <g id="医疗设施" transform="translate(359.000000, 14.000000)">
                    <path d="M37.890016,6.309888 L30.479336,6.309888 L30.479336,3.874816 C30.479336,1.738752 28.730344,0 26.57892,0 L17.44076,0 C15.29036,0 13.53932,1.738752 13.53932,3.874816 L13.53932,6.309888 L6.12864,6.309888 C2.74944,6.309888 0,9.040896 0,12.398608 L0,34.870288 C0,38.229008 2.74944,40.960008 6.12864,40.960008 L37.88696,40.960008 C41.267184,40.960008 44.0166403,38.229 44.0166403,34.871288 L44.0166403,12.397568 C44.017664,9.040896 41.268224,6.309888 37.89004,6.309888 L37.890016,6.309888 Z M5.830616,38.731768 C3.81948,38.578168 2.229208,36.905976 2.229208,34.870264 L2.229208,12.397544 C2.229208,10.361832 3.818456,8.688616 5.830616,8.53604 L5.830616,38.731768 L5.830616,38.731768 Z M15.768536,3.873768 L15.768536,3.87376411 C15.7730519,2.95353611 16.52152,2.21056811 17.441756,2.21283492 L26.579916,2.21283492 L26.579916,2.21283492 C27.499756,2.21113606 28.247596,2.95394011 28.252108,3.87376811 L28.252108,6.30884011 L15.769548,6.30884011 L15.769548,3.87376811 L15.768536,3.873768 Z M35.994576,38.745048 L8.059856,38.745048 L8.059856,8.523728 L35.994576,8.523728 L35.994576,38.745048 Z M41.789376,34.870232 C41.789376,36.89468 40.217536,38.560728 38.223808,38.728664 L38.223808,8.538064 C40.21856,8.707024 41.789376,10.372048 41.789376,12.396496 L41.789376,34.870216 L41.789376,34.870232 Z M14.976976,25.852872 L20.895696,25.852872 L20.895696,31.732672 C20.895696,32.399296 21.395408,32.93792 22.009808,32.93792 C22.625232,32.93792 23.124944,32.398272 23.124944,31.732672 L23.124944,25.852872 L29.043664,25.852872 C29.714384,25.852872 30.257104,25.357256 30.257104,24.745928 C30.257104,24.1346 29.71336,23.638984 29.043664,23.638984 L23.124944,23.638984 L23.124944,17.759184 C23.124944,17.09256 22.625232,16.553936 22.009808,16.553936 C21.395408,16.553936 20.895696,17.094608 20.895696,17.759184 L20.895696,23.638984 L14.976976,23.638984 C14.306256,23.638984 13.763536,24.1346 13.763536,24.745928 C13.763536,25.357256 14.30728,25.852872 14.976976,25.852872 Z" id="形状"></path>
                </g>
            </g>
        </g>
    </g>
</svg>