<?xml version="1.0" encoding="UTF-8"?>
<svg width="38px" height="40px" viewBox="0 0 38 40" version="1.1" xmlns="http://www.w3.org/2000/svg" xmlns:xlink="http://www.w3.org/1999/xlink">
    <title>医学隔离点</title>
    <g id="疾控大屏" stroke="none" stroke-width="1" fill="none" fill-rule="evenodd">
        <g id="疾控一网统管9.18修改（聚集性疫情地图显示）" transform="translate(-1567.000000, -110.000000)" fill="#00C2FF">
            <g id="分组-42" transform="translate(1376.000000, 96.000000)">
                <g id="医学隔离点" transform="translate(191.000000, 14.000000)">
                    <g id="分组" transform="translate(0.136722, 0.792972)">
                        <path d="M34.7351185,38.4009146 L2.99148786,38.4009146 L2.99148798,38.4009146 C1.36179741,38.3981288 0.0413704814,37.0776615 0.0386720407,35.4479709 L0.0386720407,4.44254423 C0.0386720407,1.99809217 2.02597904,0.0131914218 4.46798188,0.0131914218 L22.9235541,0.0131914218 C25.3680492,0.0131914218 27.3529069,2.00054139 27.3529069,4.44254423 L27.3529069,14.7776578 L34.7351187,14.7776578 L34.7351185,14.7776578 C36.3648434,14.7804019 37.6852833,16.1009207 37.6879345,17.7306456 L37.6879345,35.4479709 L37.6879345,35.4479096 C37.6852953,37.0776345 36.3648607,38.3981603 34.7351358,38.4009146 L34.7351185,38.4009146 Z M27.3528639,35.4479709 L34.7351185,35.4479709 L34.7351185,17.7306456 L27.3528639,17.7306456 L27.3528639,35.4479709 Z M4.46793879,2.96613626 L4.46793885,2.96613626 C3.65309142,2.96750827 2.99288011,3.62773977 2.99153089,4.4425872 L2.99153089,35.4479709 L24.399962,35.4479709 L24.399962,4.44254423 L24.399962,4.44253283 C24.3985838,3.62770259 23.7383714,2.96749987 22.9235412,2.96613626 L4.46788297,2.96613626 L4.46793879,2.96613626 Z" id="形状" fill-rule="nonzero"></path>
                        <polygon id="路径" points="21.0779581 14.4085988 15.5388501 14.4085988 15.5388501 8.87194001 11.8477872 8.87194001 11.8477872 14.4085988 6.31349172 14.4085988 6.31349172 18.0997047 11.8477872 18.0997047 11.8477872 23.6364064 15.5388931 23.6364064 15.5388931 18.0997047 21.0755519 18.0997047"></polygon>
                    </g>
                </g>
            </g>
        </g>
    </g>
</svg>