<?xml version="1.0" encoding="UTF-8"?>
<svg width="44px" height="42px" viewBox="0 0 44 42" version="1.1" xmlns="http://www.w3.org/2000/svg" xmlns:xlink="http://www.w3.org/1999/xlink">
    <title>食品</title>
    <g id="疾控大屏" stroke="none" stroke-width="1" fill="none" fill-rule="evenodd">
        <g id="疾控一网统管9.18修改（聚集性疫情地图显示）" transform="translate(-2091.000000, -109.000000)" fill="#00C2FF" fill-rule="nonzero">
            <g id="分组-42" transform="translate(1376.000000, 96.000000)">
                <g id="编组-10备份" transform="translate(698.000000, 0.000000)">
                    <g id="食品" transform="translate(17.000000, 13.000000)">
                        <path d="M0.330585879,18.2796791 L0.330585879,25.8479498 C0.330585879,34.3127506 7.87903316,37.3337545 10.5983105,38.1474107 L10.5983105,41.1839908 L33.5029746,41.1839908 L33.5030625,41.1839908 L33.5030625,38.1544447 C36.2368461,37.3523427 43.7707032,34.3303549 43.7707032,25.3882142 L43.7707032,18.2796791 L0.330585879,18.2796791 L0.330585879,18.2796791 L0.330585879,18.2796791 Z M41.4010605,25.3882271 C41.4010605,34.2572349 32.4859472,35.9994459 32.1088105,36.0688834 L31.1335531,36.2431805 L31.1335531,38.8146024 L12.9677406,38.8146024 L12.9653646,36.2594098 L12.0090177,36.0719655 C11.6287039,35.9972622 2.7000099,34.1499389 2.7000099,25.8479811 L2.7000099,24.598437 L41.4010605,24.598437 L41.4010605,25.3882284 L41.4010605,25.3882271 Z M41.4011035,23.0184963 L2.70013863,23.0184963 L2.70013863,20.6490748 L41.4011035,20.6490748 L41.4011035,23.0184963 L41.4011035,23.0184963 L41.4011035,23.0184963 Z M18.4964394,4.06360564 L42.9807207,4.06360564 L42.9807207,6.43302712 L18.4964394,6.43302712 L18.4964394,4.06360564 Z M1.12047848,4.06360564 L3.48999879,4.06360564 L3.48999879,6.43302712 L1.12047848,6.43302712 L1.12047848,4.06360564 Z M1.12047848,8.80232829 L3.48999879,8.80232829 L3.48999879,11.1717498 L1.12047848,11.1717498 L1.12047848,8.80232829 Z M18.4964394,8.80232829 L42.9807207,8.80232829 L42.9807207,11.1717498 L18.4964394,11.1717498 L18.4964394,8.80232829 Z M3.9334277,17.2667037 C6.42008941,16.7376982 7.30172652,14.7638728 7.43043512,13.6809787 L7.43857073,4.7794865 C7.43857073,3.29817321 9.07067855,2.88168571 9.29045081,2.87896579 L9.29009881,0.509630246 C7.86439139,0.509630246 5.06922694,1.79883454 5.06922694,4.7794865 L5.06922694,13.4486037 C5.02296979,13.6780418 4.74796979,14.6710217 3.44050506,14.9490853 L3.93342967,17.2667037 L3.9334277,17.2667037 Z M8.67232223,17.2667037 C11.1590269,16.7376982 12.0405738,14.7638728 12.1693726,13.6809787 L12.1775082,4.7794865 C12.1775082,3.29817321 13.8096633,2.88168571 14.0294313,2.87896579 L14.0290353,0.509630246 C12.6032849,0.509630246 9.8080302,1.79883454 9.8080302,4.7794865 L9.8080302,13.4486037 C9.76172923,13.6780418 9.48690067,14.6710217 8.17939856,14.9490853 L8.67232317,17.2667037 L8.67232223,17.2667037 Z M13.4111308,17.2667037 C15.8979687,16.7376982 16.7794296,14.7638728 16.9082671,13.6809787 L16.9163148,4.7794865 C16.9163148,3.29817321 18.5483796,2.88168571 18.7682851,2.87896579 L18.7678891,0.509630246 C17.3421387,0.509630246 14.5469313,1.79883454 14.5469313,4.7794865 L14.5469313,13.4486037 C14.500586,13.6780418 14.2257179,14.6710217 12.9182996,14.9490853 L13.411134,17.2667037 L13.4111308,17.2667037 Z" id="形状"></path>
                    </g>
                </g>
            </g>
        </g>
    </g>
</svg>