<?xml version="1.0" encoding="UTF-8"?>
<svg width="44px" height="40px" viewBox="0 0 44 40" version="1.1" xmlns="http://www.w3.org/2000/svg" xmlns:xlink="http://www.w3.org/1999/xlink">
    <title>重点场所</title>
    <g id="疾控大屏" stroke="none" stroke-width="1" fill="none" fill-rule="evenodd">
        <g id="疾控一网统管9.18修改（聚集性疫情地图显示）" transform="translate(-1400.000000, -110.000000)" fill="#00C2FF" fill-rule="nonzero">
            <g id="分组-42" transform="translate(1376.000000, 96.000000)">
                <g id="重点场所" transform="translate(24.000000, 14.000000)">
                    <g id="分组" transform="translate(0.472657, 0.363284)">
                        <path d="M42.0273966,36.6367458 L40.5273944,36.6367458 L40.5273944,13.5367125 C40.5273944,12.2367193 39.4273931,11.136718 38.0273923,11.136718 L32.3273661,11.136718 L32.3273661,9.43671762 C32.3273661,9.13671719 32.3273661,8.33671634 27.927361,4.23671938 C23.4273675,0.0367125427 22.4273546,0.0367125427 22.0273581,0.0367125427 C21.6273576,0.0367125427 20.6273572,0.0367125427 15.9273353,4.13671809 C11.3273104,8.23672365 11.3273104,8.93671977 11.3273104,9.33671633 L11.3273104,11.0367125 L5.82730405,11.0367125 C4.4273032,11.0367125 3.32730192,12.136718 3.32730192,13.4367176 L3.32730192,36.6367329 L1.12729936,36.6367329 C0.527298079,36.6367329 0.0272980786,37.136735 0.0272980786,37.7367341 C0.0272980786,38.3367333 0.527298079,38.8367354 1.12729936,38.8367354 L42.1273549,38.7367354 C42.727354,38.7367354 43.2273562,38.2367333 43.2273562,37.6367341 C43.2273562,37.036735 42.627357,36.6367342 42.0273536,36.6367342 L42.0273966,36.6367458 Z M37.927391,13.3366798 C38.127391,13.3366798 38.2274001,13.4366991 38.2274001,13.5366995 L38.2274001,36.6367264 L32.2274001,36.6367264 L32.2274001,13.3366798 L37.9274262,13.3366798 L37.927391,13.3366798 Z M17.3273749,5.8367078 C19.827377,3.63670736 21.3273791,2.53670608 21.9273997,2.3367078 C23.3273964,2.93670693 29.2274121,8.3367078 30.1273937,9.7367086 L30.1273937,36.6367243 L28.2273907,36.6367243 L28.2273907,28.9367153 C28.2273907,26.5367145 26.2273864,24.6366986 23.7273971,24.6366986 L20.0273924,24.6366986 C17.5273903,24.6366986 15.5273989,26.5367016 15.5273989,28.9367153 L15.5273989,36.6367243 L13.3273964,36.6367243 L13.3273964,9.7367086 C13.7273968,9.23670645 15.2273994,7.63670732 17.3273964,5.8367078 L17.3273749,5.8367078 Z M26.0273967,36.6367458 L17.627383,36.6367458 L17.627383,28.8367484 C17.627383,27.6367458 18.7273843,26.7367471 20.0273839,26.7367471 L23.7273885,26.7367471 C25.0273881,26.7367471 26.127383,27.6367501 26.127383,28.8367484 L26.127383,36.6367458 L26.0273967,36.6367458 Z M5.42738053,13.5367189 C5.42738053,13.4367189 5.52738053,13.3367184 5.72738096,13.3367184 L11.127399,13.3367184 L11.127399,36.6367651 L5.3273844,36.6367651 L5.3273844,13.5367382 L5.42738053,13.5367189 Z" id="形状"></path>
                        <path d="M16.6273787,17.5367274 L26.3273705,17.5367274 C26.9273696,17.5367274 27.4273718,17.0367253 27.4273718,16.4367262 C27.4273718,15.8367249 26.9273696,15.3367249 26.3273705,15.3367249 L16.6273787,15.3367249 C16.0273774,15.3367249 15.5273774,15.8367249 15.5273774,16.4367262 C15.6273774,17.0367253 16.0273774,17.5367274 16.6273787,17.5367274 Z M16.6273787,21.636733 L26.3273705,21.636733 C26.9273696,21.636733 27.4273718,21.1367308 27.4273718,20.5367317 C27.4273718,19.9367304 26.9273696,19.4367304 26.3273705,19.4367304 L16.6273787,19.4367304 C16.0273774,19.4367304 15.5273774,19.9367304 15.5273774,20.5367317 C15.5273774,21.1367308 16.0273774,21.636733 16.6273787,21.636733 Z M16.6273787,13.3367077 L26.3273705,13.3367077 C26.9273696,13.3367077 27.4273718,12.8367056 27.4273718,12.2367064 C27.4273718,11.6367051 26.9273696,11.1367051 26.3273705,11.1367051 L16.6273787,11.1367051 C16.0273774,11.1367051 15.5273774,11.6367051 15.5273774,12.2367064 C15.5273774,12.8367056 16.0273774,13.3367077 16.6273787,13.3367077 Z" id="形状"></path>
                    </g>
                </g>
            </g>
        </g>
    </g>
</svg>