<?xml version="1.0" encoding="UTF-8"?>
<svg width="32px" height="36px" viewBox="0 0 32 36" version="1.1" xmlns="http://www.w3.org/2000/svg" xmlns:xlink="http://www.w3.org/1999/xlink">
    <title>模型</title>
    <g id="长宁区城市运行管理中心" stroke="none" stroke-width="1" fill="none" fill-rule="evenodd">
        <g id="长宁区城市运行管理中心-20.12.18" transform="translate(-1860.000000, -983.000000)" fill="#FFFFFF" fill-rule="nonzero">
            <g id="编组-63" transform="translate(1668.000000, 964.000000)">
                <g id="编组-80" transform="translate(176.000000, 5.000000)">
                    <g id="模型" transform="translate(16.000000, 14.000000)">
                        <path d="M31.3686196,26.1109023 L31.3686196,26.1109023 C31.3934481,26.0079734 31.4017255,25.9017473 31.3931407,25.7962149 L31.3931407,9.35480518 L31.3931408,9.35480838 C31.3927685,9.28620337 31.385927,9.21778604 31.3727071,9.15046596 L31.3727071,9.15046594 C31.3346233,8.83728595 31.1514518,8.56025681 30.8781981,8.40257163 L16.5619564,0.138949513 L16.5619565,0.138949557 C16.3732062,0.0309565877 16.1544862,-0.0127890882 15.938713,0.0143005059 L15.938713,0.0143005062 C15.7592457,0.0112589099 15.5824363,0.0579365257 15.4278552,0.149166507 L1.66742356,8.08990387 L1.66742356,8.08990387 C1.59463545,8.12158387 1.52600877,8.16207358 1.46308114,8.21046607 L1.11161354,8.4148085 L1.11161362,8.41480845 C0.895099683,8.54176682 0.732893495,8.74398005 0.655931218,8.98288005 L0.655931218,9.02374853 L0.655931212,9.02374865 C0.655432725,9.03327813 0.655432729,9.04282714 0.655931224,9.05235662 L0.655931224,9.06870402 L0.655931223,9.06870402 C0.654004564,9.07814269 0.654004567,9.0878733 0.655931225,9.09731196 L0.655931225,9.1422673 L0.655931225,9.1422673 C0.657861263,9.148942 0.657861263,9.15602684 0.655931224,9.16270154 L0.655931225,9.16270155 C0.657843265,9.17076342 0.657843265,9.17916076 0.655931223,9.18722264 L0.655931223,9.18722264 C0.657857886,9.1966613 0.657857886,9.20639195 0.655931222,9.21583061 L0.655931222,25.8840469 L0.655931236,25.8840889 C0.656019603,26.139943 0.754850226,26.3858923 0.931822557,26.5706684 L0.931822583,26.5706685 C1.00173041,26.6510425 1.08377779,26.7199895 1.17499024,26.7750109 L15.5423132,35.0713237 L15.5545738,35.0713237 L15.5790949,35.0835843 L15.5913554,35.0835843 L15.5913554,35.0835842 C15.8948825,35.2404156 16.2572102,35.2327228 16.5538084,35.06315 L30.8250875,26.8260998 L30.8250876,26.8260998 C31.1084166,26.6861473 31.3096587,26.4213577 31.3686394,26.1108996 L31.3686196,26.1109023 Z M16.0020486,2.11702121 L27.9847063,9.03197301 L21.6296552,12.7101367 L16.6048837,9.8105161 L16.6048838,9.81051615 C16.4194631,9.70359362 16.204308,9.65984554 15.9918565,9.6858671 L15.9918565,9.6858671 C15.7794579,9.66116743 15.5647157,9.70483161 15.3788292,9.81051616 L10.4214672,12.6713101 L4.07662545,9.00744647 L16.0020486,2.11702121 Z M15.9897881,11.7722137 L19.6168704,13.8646808 L16.0613225,15.9183248 L12.4342402,13.8258577 L15.9897881,11.7722137 Z M11.204095,15.4319867 L14.9823931,17.6123199 L14.9823931,22.2488596 L11.204095,20.0685265 L11.204095,15.4319867 Z M16.991046,17.7655775 L16.991046,17.7655775 C17.0209763,17.7315078 17.0463867,17.6937358 17.0666711,17.653189 L20.7816161,15.5075918 L20.7816161,20.0644159 L16.991046,22.2529234 L16.991046,17.7655775 Z M2.61556,10.4726034 L9.19741766,14.2713204 L9.19741766,20.5180558 L9.19741764,20.5180582 C9.19608938,20.7304708 9.26346756,20.9376193 9.3895009,21.1086076 L9.38950087,21.1086075 C9.47456019,21.30172 9.61732557,21.4637601 9.79818572,21.5724643 L14.974173,24.5599509 L14.974173,32.4455164 L2.61146486,25.3078487 L2.61556,10.4726034 Z M16.9910642,24.572248 L22.183414,21.576587 L22.183414,21.576587 C22.3658014,21.4697232 22.5090598,21.3071248 22.5920988,21.1127302 L22.5920989,21.1127302 C22.7168411,20.9410826 22.7840773,20.7343676 22.7841807,20.5221808 L22.7841807,14.3510361 L29.3824009,10.5441379 L29.3824009,25.3037832 L16.9869677,32.4557853 L16.9910642,24.572248 Z" id="形状"></path>
                        <path d="M3.89069072,23.7793464 L3.89069072,23.7793463 C3.89069072,24.333465 4.33989347,24.7826677 4.89401224,24.7826677 C5.44813101,24.7826677 5.89733372,24.333465 5.89733372,23.7793463 C5.89733372,23.2252275 5.44813101,22.7760248 4.89401224,22.7760248 L4.8940122,22.7760248 C4.33989343,22.7760248 3.89069072,23.2252275 3.89069072,23.7793463 C3.89069072,23.7793463 3.89069072,23.7793463 3.89069072,23.7793463 L3.89069072,23.7793464 Z" id="路径"></path>
                        <path d="M6.54303448,22.3652948 L6.54303448,22.3652949 C6.54303448,22.9194137 6.99223719,23.3686164 7.54635596,23.3686164 C8.10047473,23.3686164 8.54967744,22.9194137 8.54967744,22.3652949 C8.54967744,21.8111762 8.10047473,21.3619734 7.54635596,21.3619734 L7.546356,21.3619734 C6.99223723,21.3619734 6.54303448,21.8111762 6.54303448,22.3652949 C6.54303448,22.3652949 6.54303448,22.365295 6.54303448,22.365295 L6.54303448,22.3652948 Z" id="路径"></path>
                        <path d="M24.2901801,23.4299241 L24.29018,23.4299241 C24.8387988,23.5077977 25.3466728,23.1261821 25.424546,22.5775606 C25.5024196,22.0289419 25.1208041,21.5210678 24.5721826,21.4431946 C24.0242582,21.3654197 23.5168241,21.7459934 23.4380709,22.2937775 L23.4380709,22.2937778 C23.3592159,22.8422591 23.7399219,23.3508137 24.2884028,23.4296666 C24.2889953,23.4297518 24.2895879,23.4298365 24.2901806,23.4299206 L24.2901801,23.4299241 Z" id="路径"></path>
                        <path d="M27.0140927,24.7009069 L27.0140927,24.7009069 C27.5627114,24.7787801 28.0705855,24.3971645 28.1484587,23.8485434 C28.2263319,23.2999246 27.8447164,22.7920506 27.2960952,22.7141774 C26.7481708,22.6364025 26.2407368,23.0169761 26.1619835,23.5647602 L26.1619835,23.5647606 C26.0831285,24.1132418 26.4638345,24.6217965 27.0123154,24.7006494 C27.012908,24.7007346 27.0135005,24.7008192 27.0140932,24.7009034 L27.0140927,24.7009069 Z" id="路径"></path>
                        <path d="M14.9905631,4.82862749 L14.990563,4.82862729 C15.0822894,5.37510105 15.5996544,5.74374929 16.1461281,5.65202293 C16.6926019,5.56029657 17.0612501,5.0429316 16.9695238,4.49645784 C16.8777974,3.94998408 16.3604324,3.58133583 15.8139587,3.67306219 C15.8119496,3.67339942 15.8099415,3.67374277 15.8079345,3.67409222 L15.8079345,3.67409223 C15.2643792,3.76873669 14.8992337,4.28450357 14.9905648,4.82862608 L14.9905631,4.82862749 Z" id="路径"></path>
                        <path d="M14.9946537,7.83654662 L14.9946537,7.83654641 C15.08638,8.38302017 15.603745,8.75166841 16.1502187,8.65994206 C16.6966925,8.5682157 17.0653407,8.05085072 16.9736144,7.50437696 C16.881888,6.9579032 16.3645231,6.58925496 15.8180493,6.68098132 C15.8160402,6.68131854 15.8140322,6.68166189 15.8120252,6.68201135 L15.8120251,6.68201136 C15.2684698,6.77665581 14.9033244,7.29242269 14.9946554,7.8365452 L14.9946537,7.83654662 Z" id="路径"></path>
                    </g>
                </g>
            </g>
        </g>
    </g>
</svg>