<?xml version="1.0" encoding="UTF-8"?>
<svg width="32px" height="32px" viewBox="0 0 32 32" version="1.1" xmlns="http://www.w3.org/2000/svg" xmlns:xlink="http://www.w3.org/1999/xlink">
    <title>卫星</title>
    <g id="长宁区城市运行管理中心" stroke="none" stroke-width="1" fill="none" fill-rule="evenodd">
        <g id="长宁区城市运行管理中心-20.12.18" transform="translate(-1948.000000, -985.000000)" fill="#FFFFFF" fill-rule="nonzero">
            <g id="编组-63" transform="translate(1668.000000, 964.000000)">
                <g id="编组-85" transform="translate(264.000000, 5.000000)">
                    <g id="卫星" transform="translate(16.000000, 16.000000)">
                        <path d="M24.1988407,10.4134809 C24.7198006,9.68176439 24.6526099,8.65997258 23.9962701,8.00369681 C23.3399943,7.34742105 22.3182025,7.28016785 21.5864861,7.80112627 L16.3123237,2.52696388 C15.9463076,2.16082283 15.3526601,2.16088533 14.9864565,2.52696388 C13.0516917,4.46172863 11.9860843,7.03415662 11.9860843,9.77031606 C11.9860843,10.8496079 12.152591,11.9031529 12.4721036,12.9024447 L10.5042732,14.8702751 L9.04784022,13.4138422 L10.1291352,12.3325472 C10.7382234,11.723334 10.7382234,10.7321078 10.1290727,10.1228321 L6.15497435,6.14867122 C5.54569864,5.53939551 4.55447249,5.53939551 3.94519678,6.14867122 L0.456942719,9.63692528 C-0.15233299,10.246201 -0.15233299,11.2374271 0.456942719,11.8467028 L4.43097859,15.8208012 C4.73561582,16.1254385 5.13569504,16.277758 5.53589863,16.277758 C5.93610222,16.277758 6.33618081,16.1254394 6.64081866,15.8208012 L7.72205117,14.7395687 L9.17848412,16.1960017 L5.88873029,19.4857555 C4.05159378,21.322892 4.04309377,24.3035736 5.86972952,26.1302007 C6.77976495,27.0401737 7.97581322,27.4946304 9.17454586,27.4946304 C10.3820941,27.4946304 11.5923299,27.0331736 12.5141747,26.1112632 L15.8039286,22.8215719 L17.2603615,24.2780048 L16.1791915,25.3591748 C15.5699158,25.9684505 15.5699158,26.9596767 16.1791915,27.5689524 L20.1532274,31.5430508 C20.4578646,31.847688 20.8579438,32.0000075 21.2581474,32.0000075 C21.658351,32.0000075 22.0584296,31.8476889 22.3630675,31.5430508 L25.8513215,28.0547967 C26.1465209,27.7596598 26.3090283,27.3672678 26.3090283,26.9498767 C26.3090283,26.5324856 26.1464594,26.1400945 25.851384,25.8449566 L21.8772856,21.8708583 C21.2680099,21.2615826 20.2767838,21.2615826 19.6675081,21.8708583 L18.5862756,22.9520908 L17.1298426,21.4956578 L19.1023605,19.5231399 L19.1023614,19.5231402 C20.1135814,19.8452593 21.1685139,20.0091376 22.2298026,20.008972 C24.8530338,20.008972 27.4761524,19.0104958 29.4731548,17.0134779 C29.8392958,16.6473368 29.8392958,16.0537518 29.4731548,15.6876107 L24.1988407,10.4134809 Z M5.53591269,14.2740166 L2.00384608,10.7418875 L5.05009338,7.6955777 L8.58222249,11.2277068 L5.53591269,14.2740166 Z M20.7723367,23.417746 L24.3044658,26.9498751 L21.258156,29.9961849 L17.7260894,26.4640558 L20.7723367,23.417746 Z M7.19560212,24.8043632 C6.33006674,23.9388279 6.15368529,22.6390888 6.66314213,21.5861095 L10.4138652,25.3368951 C9.36094839,25.8462895 8.06120938,25.6698455 7.1956115,24.8043726 L7.19560212,24.8043632 Z M11.851295,24.1224593 L7.87757167,20.1486734 L13.2744842,14.7517609 C13.7317535,15.5709181 14.3049635,16.3318878 14.9865518,17.013476 C15.6752682,17.7021925 16.4384848,18.27209 17.2505169,18.7232937 L11.851295,24.1224593 Z M16.3123627,15.6876683 C14.7317359,14.1070414 13.8612005,12.0055702 13.8612005,9.77025512 C13.8612005,7.85055289 14.5033513,6.02934452 15.685837,4.5522178 L27.4473819,16.3137002 C24.1648156,18.9353064 19.351185,18.7264843 16.312369,15.6876745 L16.3123627,15.6876683 Z M22.51912,5.4558751 C24.738585,5.4558751 26.5441559,7.26151157 26.5441559,9.48091103 C26.5441559,9.99868038 26.963922,10.4184496 27.4816945,10.4184496 C27.9994638,10.4184496 28.4192331,9.99868351 28.4192331,9.48091103 C28.4192331,6.22759475 25.7724394,3.58081042 22.5191325,3.58081042 C22.0013631,3.58081042 21.5815939,4.00057653 21.5815939,4.51834901 C21.5815939,5.03611836 22.0012975,5.4558876 22.5191325,5.4558876 L22.51912,5.4558751 Z M23.4023429,-5.62500654e-05 C22.8845735,-5.62500654e-05 22.4648043,0.419728613 22.4648043,0.937501091 C22.4648043,1.45527044 22.8845704,1.87503968 23.4023429,1.87503968 C27.1092534,1.87503968 30.1249757,4.89078694 30.1249757,8.59761 C30.1249757,9.11537936 30.5447418,9.5351486 31.0625143,9.5351486 C31.5802836,9.5351486 32.0000529,9.11538248 32.0000529,8.59761 C32.0000529,3.85685449 28.1431421,-5.62500654e-05 23.4023241,-5.62500654e-05 L23.4023429,-5.62500654e-05 Z" id="形状"></path>
                    </g>
                </g>
            </g>
        </g>
    </g>
</svg>