<?xml version="1.0" encoding="UTF-8"?>
<svg width="30px" height="30px" viewBox="0 0 30 30" version="1.1" xmlns="http://www.w3.org/2000/svg" xmlns:xlink="http://www.w3.org/1999/xlink">
    <!-- Generator: Sketch 60 (88103) - https://sketch.com -->
    <title>icon-码头切换-散杂货</title>
    <desc>Created with Sketch.</desc>
    <g id="吞吐量" stroke="none" stroke-width="1" fill="none" fill-rule="evenodd">
        <g id="吞吐量-全港当日吞吐量" transform="translate(-1700.000000, -261.000000)" fill="#DDEAFF" fill-rule="nonzero">
            <g id="码头切换" transform="translate(1684.000000, 252.000000)">
                <g id="icon-码头切换-散杂货" transform="translate(16.000000, 9.000000)">
                    <path d="M13.3334766,6.43160364 C14.383369,5.91081256 15.6163674,5.91081256 16.6662598,6.43160364 L18.7498352,7.46512969 L18.7498352,3.74996704 L11.2499011,3.74996704 L11.2499011,7.46512969 L13.3334766,6.43160364 L13.3334766,6.43160364 Z M1.65224133,23.2993655 C2.37528185,23.8082478 3.07321518,24.052523 3.74996704,24.052523 C4.15390881,24.052523 4.56910046,23.9275436 5.14348995,23.6457394 C5.25874283,23.589197 5.38114412,23.5262092 5.53014671,23.4473135 C5.58926728,23.4159661 5.6497355,23.3836812 5.73346523,23.3387402 L5.8377612,23.2827836 C5.87986043,23.2601667 5.91223321,23.2428231 5.94390284,23.2258603 C6.57577228,22.8878652 6.9785129,22.6949177 7.45130171,22.5254661 C8.08592502,22.2980365 8.7132535,22.1775395 9.37491762,22.1775395 C9.98126971,22.1775395 10.5248977,22.2793452 11.0463482,22.4763942 C11.4452803,22.6271546 11.7741641,22.8030515 12.2623922,23.1029903 C12.3149796,23.1352752 12.4900855,23.2436141 12.5077807,23.2545124 C12.9826203,23.5472442 13.2593268,23.6951336 13.5908767,23.8177985 C14.0081191,23.972133 14.4569433,24.052523 14.9998682,24.052523 C15.5352638,24.052523 15.9506899,23.9749748 16.3215851,23.8266168 C16.6093658,23.7114811 16.8169909,23.5893727 17.2923285,23.2724712 C17.8716398,22.8862539 18.1620865,22.7154253 18.6067212,22.5375656 C19.2026144,22.2992083 19.8544056,22.1775395 20.6248187,22.1775395 C21.3895191,22.1775395 22.0594741,22.2972747 22.6864217,22.5283371 C23.1639273,22.7043219 23.5355256,22.9020741 24.1079522,23.2537214 C24.1272587,23.2655572 24.313966,23.3806637 24.3673737,23.4133294 C24.7571066,23.6517159 24.9980713,23.7798887 25.2579909,23.8776808 C25.5665136,23.993754 25.8807491,24.052523 26.2497693,24.052523 C27.0695765,24.052523 27.76792,23.8466556 28.3673581,23.4232023 C28.5388898,23.2339462 28.7866806,23.1150312 29.0622446,23.1150312 C29.5800037,23.1150312 29.9997363,23.5347638 29.9997363,24.052523 C29.9997363,24.4141897 29.794953,24.7280151 29.4949849,24.8843711 C28.5708817,25.5618847 27.4916529,25.9275065 26.2497693,25.9275065 C25.6519718,25.9275065 25.1143789,25.8269898 24.5976744,25.6325481 C24.201467,25.4834577 23.8716457,25.3080295 23.3889839,25.0128075 C23.3322949,24.9781203 23.1434196,24.8616955 23.1265741,24.8513539 C22.6515294,24.5595596 22.3716588,24.4106155 22.0379997,24.2876576 C21.6185014,24.1330301 21.1680659,24.052523 20.6248187,24.052523 C20.0894231,24.052523 19.673997,24.1300711 19.3031018,24.2784292 C19.0153211,24.3935649 18.807696,24.5156732 18.3323584,24.8325747 C17.7530471,25.218792 17.4626004,25.3896206 17.0179657,25.5674804 C16.4220725,25.8058376 15.7702813,25.9275065 14.9998682,25.9275065 C14.2349335,25.9275065 13.565828,25.8076833 12.9403746,25.5762986 C12.4644217,25.4002553 12.0962511,25.2034406 11.5237952,24.8505335 C11.5039614,24.8382876 11.3306133,24.7310912 11.2809263,24.7005642 C10.88592,24.4579003 10.6454826,24.3292881 10.3835708,24.2303242 C10.0712982,24.1123467 9.75190646,24.052523 9.37491762,24.052523 C8.9411226,24.052523 8.52490556,24.1324734 8.08384497,24.2905287 C7.7197173,24.4210158 7.38462261,24.5815906 6.82827984,24.8791856 C6.79751839,24.895621 6.76587806,24.9125838 6.72451122,24.9347906 L6.61992229,24.9909522 C6.54933205,25.028878 6.47863906,25.0666122 6.40784408,25.1041544 C6.2430506,25.1914583 6.10433112,25.2628248 5.96933229,25.3290645 C5.16077496,25.7257407 4.49049765,25.9275065 3.74996704,25.9275065 C2.59108075,25.9275065 1.49802396,25.5171781 0.409859678,24.7005642 C0.396324639,24.6903982 0.383785693,24.6749003 0.372301406,24.6540704 C0.146131523,24.4829196 0,24.211545 0,23.9060399 C0,23.3882808 0.419732637,22.9685481 0.937491768,22.9685481 C1.2238662,22.9685481 1.4802702,23.0969552 1.65224133,23.2993655 Z M1.65224133,27.3715954 C2.37528185,27.8804776 3.07321518,28.1247528 3.74996704,28.1247528 C4.15390881,28.1247528 4.56910046,27.9997734 5.14348995,27.7179693 C5.25874283,27.6614268 5.38114412,27.5984391 5.53014671,27.5195433 C5.58926728,27.4881959 5.6497355,27.455911 5.73346523,27.41097 L5.8377612,27.3550135 C5.87986043,27.3323965 5.91223321,27.3150529 5.94390284,27.2980902 C6.57577228,26.9600951 6.9785129,26.7671476 7.45130171,26.5976959 C8.08592502,26.3702663 8.7132535,26.2497693 9.37491762,26.2497693 C9.98126971,26.2497693 10.5248977,26.351575 11.0463482,26.5486241 C11.4452803,26.6993845 11.7741641,26.8752814 12.2623922,27.1752201 C12.3149796,27.207505 12.4900855,27.3158439 12.5077807,27.3267422 C12.9826203,27.619474 13.2593268,27.7673634 13.5908767,27.8900283 C14.0081191,28.0443629 14.4569433,28.1247528 14.9998682,28.1247528 C15.5352638,28.1247528 15.9506899,28.0472047 16.3215851,27.8988466 C16.6093658,27.7837109 16.8169909,27.6616026 17.2923285,27.3447011 C17.8716398,26.9584838 18.1620865,26.7876552 18.6067212,26.6097954 C19.2026144,26.3714382 19.8544056,26.2497693 20.6248187,26.2497693 C21.3895191,26.2497693 22.0594741,26.3695046 22.6864217,26.600567 C23.1639273,26.7765518 23.5355256,26.9743039 24.1079522,27.3259512 C24.1272587,27.3377871 24.313966,27.4528935 24.3673737,27.4855592 C24.7571066,27.7239458 24.9980713,27.8521185 25.2579909,27.9499106 C25.5665136,28.0659838 25.8807491,28.1247528 26.2497693,28.1247528 C27.0695765,28.1247528 27.76792,27.9188855 28.3673581,27.4954322 C28.5388898,27.306176 28.7866806,27.1872611 29.0622446,27.1872611 C29.5800037,27.1872611 29.9997363,27.6069937 29.9997363,28.1247528 C29.9997363,28.4864196 29.794953,28.8002449 29.4949849,28.956601 C28.5708817,29.6341146 27.4916529,29.9997363 26.2497693,29.9997363 C25.6519718,29.9997363 25.1143789,29.8992196 24.5976744,29.704778 C24.201467,29.5556875 23.8716457,29.3802594 23.3889839,29.0850373 C23.3322949,29.0503501 23.1434196,28.9339254 23.1265741,28.9235837 C22.6515294,28.6317894 22.3716588,28.4828454 22.0379997,28.3598875 C21.6185014,28.2052599 21.1680659,28.1247528 20.6248187,28.1247528 C20.0894231,28.1247528 19.673997,28.202301 19.3031018,28.350659 C19.0153211,28.4657947 18.807696,28.587903 18.3323584,28.9048046 C17.7530471,29.2910219 17.4626004,29.4618504 17.0179657,29.6397102 C16.4220725,29.8780675 15.7702813,29.9997363 14.9998682,29.9997363 C14.2349335,29.9997363 13.565828,29.8799132 12.9403746,29.6485285 C12.4644217,29.4724851 12.0962511,29.2756704 11.5237952,28.9227634 C11.5039614,28.9105174 11.3306133,28.8033211 11.2809263,28.772794 C10.88592,28.5301301 10.6454826,28.4015179 10.3835708,28.302554 C10.0712982,28.1845765 9.75190646,28.1247528 9.37491762,28.1247528 C8.9411226,28.1247528 8.52490556,28.2047033 8.08384497,28.3627585 C7.7197173,28.4932457 7.38462261,28.6538204 6.82827984,28.9514155 C6.79751839,28.9678509 6.76587806,28.9848136 6.72451122,29.0070204 L6.61992229,29.0631821 C6.54933205,29.1011078 6.47863906,29.138842 6.40784408,29.1763842 C6.2430506,29.2636881 6.10433112,29.3350547 5.96933229,29.4012943 C5.16077496,29.7979705 4.49049765,29.9997363 3.74996704,29.9997363 C2.59108075,29.9997363 1.49802396,29.5894079 0.409859678,28.772794 C0.396324639,28.7626281 0.383785693,28.7471302 0.372301406,28.7263003 C0.146131523,28.5551494 0,28.2837749 0,27.9782697 C0,27.4605106 0.419732637,27.040778 0.937491768,27.040778 C1.2238662,27.040778 1.4802702,27.169185 1.65224133,27.3715954 Z M0.372301406,20.2888744 C0.146131523,20.1177236 0,19.846349 0,19.5408439 C0,19.0230848 0.419732637,18.6033521 0.937491768,18.6033521 C1.2238662,18.6033521 1.4802702,18.7317592 1.65224133,18.9341695 C2.37528185,19.4430518 3.07321518,19.687327 3.74996704,19.687327 C4.15390881,19.687327 4.56910046,19.5623476 5.14348995,19.2805434 C5.25874283,19.224001 5.38114412,19.1610132 5.53014671,19.0821174 C5.58926728,19.05077 5.6497355,19.0184852 5.73346523,18.9735442 L5.8377612,18.9175876 C5.87986043,18.8949707 5.91223321,18.8776271 5.94390284,18.8606643 C6.29390953,18.6734589 6.57360434,18.5307258 6.83387549,18.4118401 L4.58849481,12.9269274 C4.12537389,12.0007441 4.50081003,10.8744943 5.42699332,10.4113733 L9.37491762,8.43742585 L9.37491762,3.74996704 C9.37491762,2.71444881 10.2143829,1.87498351 11.2499011,1.87498354 L14.0623764,1.87498354 L14.0623764,0.937491768 C14.0623764,0.419732637 14.482109,0 14.9998682,0 C15.5176273,0 15.9373599,0.419732637 15.9373599,0.937491768 L15.9373599,1.87498354 L18.7498352,1.87498354 C19.7853534,1.87498354 20.6248187,2.71444881 20.6248187,3.74996704 L20.6248187,8.43742585 L24.572743,10.4113733 C25.4989263,10.8744943 25.8743624,12.0007148 25.4112415,12.9269274 L23.182472,18.3712643 C23.4623426,18.5042417 23.7447327,18.6654024 24.1079522,18.8884961 C24.1272587,18.9003612 24.313966,19.0154676 24.3673737,19.0481334 C24.7571066,19.2865199 24.9980713,19.4146927 25.2579909,19.5124847 C25.5665136,19.6285579 25.8807491,19.687327 26.2497693,19.687327 C27.0695765,19.687327 27.76792,19.4814596 28.3673581,19.0580063 C28.5388898,18.8687502 28.7866806,18.7498352 29.0622446,18.7498352 C29.5800037,18.7498352 29.9997363,19.1695678 29.9997363,19.687327 C29.9997363,20.0489937 29.794953,20.3628191 29.4949849,20.5191751 C28.5708817,21.1966887 27.4916529,21.5623105 26.2497693,21.5623105 C25.6519718,21.5623105 25.1143789,21.4617938 24.5976744,21.2673521 C24.201467,21.1182617 23.8716457,20.9428335 23.3889839,20.6476115 C23.3322949,20.6129243 23.1434196,20.4964995 23.1265741,20.4861578 C22.6515294,20.1943635 22.3716588,20.0454195 22.0379997,19.9224616 C21.6185014,19.7678341 21.1680659,19.687327 20.6248187,19.687327 C20.0894231,19.687327 19.673997,19.7648751 19.3031018,19.9132332 C19.1652612,19.9683694 19.0458482,20.0250877 18.9065721,20.1040714 C18.6014186,20.2909838 18.3105324,20.4938336 17.9982305,20.6863416 C17.6227944,20.9264274 17.3682067,21.0621879 17.0179657,21.2022843 C16.4220725,21.4406416 15.7702813,21.5623105 14.9998682,21.5623105 C14.2349335,21.5623105 13.565828,21.4424873 12.9403746,21.2111026 C12.4644217,21.0350593 12.0962511,20.8382446 11.5237952,20.4853375 C11.5039614,20.4730915 11.3306133,20.3658952 11.2809263,20.3353681 C10.88592,20.0927043 10.6454826,19.9640921 10.3835708,19.8651281 C10.0712982,19.7471507 9.75190646,19.687327 9.37491762,19.687327 C8.9411226,19.687327 8.52490556,19.7672774 8.08384497,19.9253327 C7.7197173,20.0558198 7.38462261,20.2163946 6.82827984,20.5139896 C6.79751839,20.530425 6.76587806,20.5473878 6.72451122,20.5695946 L6.61992229,20.6257562 C6.54933205,20.663682 6.47863906,20.7014162 6.40784408,20.7389583 C6.2430506,20.8262623 6.10433112,20.8976288 5.96933229,20.9638685 C5.16077496,21.3605447 4.49049765,21.5623105 3.74996704,21.5623105 C2.59108075,21.5623105 1.49802396,21.1519821 0.409859678,20.3353681 C0.396324639,20.3252022 0.383785693,20.3097043 0.372301406,20.2888744 Z M17.9745295,18.4761755 C18.3173585,18.2675836 18.6046412,18.1181708 18.9509565,17.974178 C19.7155982,17.6562511 20.5395949,17.588195 21.4160618,17.7371097 L23.7027214,12.1514167 L23.7342152,12.0884289 L14.9998682,7.72124074 L6.26552109,12.0884289 L6.29701497,12.1514167 L8.6127075,17.8080662 C8.73551892,17.7863867 8.85469755,17.7683985 8.97044851,17.7541604 C9.76678916,17.6559874 10.4571933,17.7180962 11.0809768,18.0477125 C11.3883862,18.2101329 12.4496562,18.7862802 12.6806307,18.9074217 C13.1644644,19.1611304 13.5130941,19.3230821 13.8263043,19.4369581 C14.2386248,19.5868396 14.5979479,19.654632 14.9998682,19.654632 C15.5470411,19.654632 15.9621156,19.5804529 16.3276495,19.4414698 C16.5442687,19.3590877 16.7354584,19.2617057 17.0121356,19.0911994 C17.1060629,19.0307021 17.199464,18.9693917 17.2923285,18.9072752 C17.5697675,18.7223257 17.7809375,18.5867702 17.9745295,18.4761755 L17.9745295,18.4761755 Z" id="形状"></path>
                </g>
            </g>
        </g>
    </g>
</svg>