<?xml version="1.0" encoding="UTF-8"?>
<svg width="36px" height="30px" viewBox="0 0 36 30" version="1.1" xmlns="http://www.w3.org/2000/svg" xmlns:xlink="http://www.w3.org/1999/xlink">
    <!-- Generator: Sketch 60 (88103) - https://sketch.com -->
    <title>icon-码头切换-集装箱</title>
    <desc>Created with Sketch.</desc>
    <g id="吞吐量" stroke="none" stroke-width="1" fill="none" fill-rule="evenodd">
        <g id="吞吐量-全港当日吞吐量" transform="translate(-1698.000000, -261.000000)" fill="#DDEAFF" fill-rule="nonzero">
            <g id="码头切换" transform="translate(1684.000000, 252.000000)">
                <g id="icon-码头切换-集装箱" transform="translate(14.000000, 9.000000)">
                    <path d="M29.947526,0.0162760254 L35.4308594,7.06731772 L35.4329427,7.06835938 L35.4329427,29.985026 L0.0162760254,29.985026 L0.0162760254,7.06835938 L31.472526,7.06731772 L28.4183594,3.14127603 L7.03085938,3.14127603 L3.97669272,7.06731772 L0.018359375,7.06731772 L5.50169272,0.0162760254 L29.947526,0.0162760254 Z M32.3079427,10.1933594 L3.14127603,10.1933594 L3.14127603,26.860026 L32.3079427,26.860026 L32.3079427,10.1933594 L32.3079427,10.1933594 Z M11.4746094,13.3183594 L11.4746094,23.735026 L8.34960937,23.735026 L8.34960937,13.3183594 L11.4746094,13.3183594 Z M19.8079427,13.3183594 L19.8079427,23.735026 L16.6829427,23.735026 L16.6829427,13.3183594 L19.8079427,13.3183594 Z M28.141276,13.3183594 L28.141276,23.735026 L25.016276,23.735026 L25.016276,13.3183594 L28.141276,13.3183594 Z" id="形状"></path>
                </g>
            </g>
        </g>
    </g>
</svg>